<svg id="Icone_Adesão" xmlns="http://www.w3.org/2000/svg" width="24" height="24" viewBox="0 0 24 24">
  <g id="icone_safearea" data-name="icone+safearea">
    <rect id="Margem_de_segurança" data-name="Margem de segurança" width="24" height="24" fill="none"/>
    <g id="icone_adesão-2" data-name="icone_adesão" transform="translate(-1358 20406)">
      <path id="Forma_650" data-name="Forma 650" d="M25.387,244.009c.1-.421.191-.863.282-1.3.1-.47.194-1.013-.077-1.2a.54.54,0,0,0-.5-.032c-.152.067-.168.174-.31.231a.709.709,0,0,1-.683-.206,1.292,1.292,0,0,1,.268-1.839.736.736,0,0,1,.544.075c.123.066.229.228.322.215.212-.029.33-.719.282-1.3a3.1,3.1,0,0,0-.489-1.418l.85-.335a2.223,2.223,0,0,1,1.534-.128c.269.09.4.19.415.3.022.169-.257.316-.347.545a.611.611,0,0,0,.014.536c.132.195.418.2.774.2.586,0,.941-.018,1.08-.206a.79.79,0,0,0-.021-.8c-.088-.15-.2-.222-.19-.353s.148-.263.352-.367a4.187,4.187,0,0,1,2.5.428c-.092.356-.189.705-.289,1.035a2.858,2.858,0,0,0-.055,1.342c.043.148.1.242.188.263.1.026.188-.068.313-.142a.849.849,0,0,1,.767-.064,1.175,1.175,0,0,1,.378.616,1.466,1.466,0,0,1,.023.893c-.112.229-.371.495-.621.463-.156-.02-.288-.179-.459-.256a.382.382,0,0,0-.227-.039.413.413,0,0,0-.266.186,4.228,4.228,0,0,0-.021.939,4.288,4.288,0,0,0,.447,1.553,3.819,3.819,0,0,1-2.337.507c-.232-.136-.377-.283-.373-.437,0-.169.2-.263.259-.454a.6.6,0,0,0-.058-.49c-.124-.191-.516-.306-1.226-.192a.92.92,0,0,0-.625.284.793.793,0,0,0,.083.829c.057.074.132.142.126.238s-.084.182-.264.275A3.425,3.425,0,0,1,25.387,244.009Z" transform="translate(1338.167 -20631.125)" fill="#f14e3d" fill-rule="evenodd"/>
      <path id="Forma_650_copiar" data-name="Forma 650 copiar" d="M49.272,11.574c-.425-.1-.87-.2-1.315-.295-.474-.1-1.022-.2-1.219.061a.524.524,0,0,0-.038.492c.066.152.174.168.23.31a.691.691,0,0,1-.217.673c-.486.472-1.685.242-1.857-.287a.714.714,0,0,1,.083-.537c.068-.12.233-.224.222-.316-.027-.21-.723-.334-1.315-.295a3.183,3.183,0,0,0-1.44.467L42.078,11a2.153,2.153,0,0,1-.112-1.518c.094-.265.2-.394.311-.406.171-.019.316.258.547.35a.631.631,0,0,0,.542-.007c.2-.128.212-.41.215-.763.006-.579-.007-.93-.2-1.07a.815.815,0,0,0-.813.011c-.153.085-.227.192-.359.184s-.265-.149-.367-.352a4.061,4.061,0,0,1,.463-2.464c.359.1.711.2,1.044.3a2.955,2.955,0,0,0,1.357.071c.15-.041.246-.1.269-.182.028-.1-.067-.186-.14-.311a.823.823,0,0,1-.056-.759,1.192,1.192,0,0,1,.628-.366,1.515,1.515,0,0,1,.9-.012c.231.114.5.373.461.619-.022.154-.184.283-.265.45A.37.37,0,0,0,46.468,5a.409.409,0,0,0,.184.266A4.374,4.374,0,0,0,47.6,5.3a4.413,4.413,0,0,0,1.576-.424,3.706,3.706,0,0,1,.484,2.317c-.141.227-.291.369-.447.364-.171-.006-.264-.2-.456-.262a.617.617,0,0,0-.5.051c-.2.121-.316.506-.209,1.209a.9.9,0,0,0,.28.622.817.817,0,0,0,.84-.072c.076-.055.145-.129.242-.121s.183.086.275.264A3.322,3.322,0,0,1,49.272,11.574Z" transform="translate(1320.768 -20405.645)" fill="#e4e4e4" fill-rule="evenodd"/>
      <path id="Forma_650_copiar_copy" data-name="Forma 650 copiar copy" d="M267.256,214.682c-.425-.1-.87-.2-1.315-.295-.474-.1-1.022-.2-1.219.061a.524.524,0,0,0-.038.492c.066.152.174.168.23.31a.691.691,0,0,1-.217.673c-.486.472-1.685.242-1.857-.287a.714.714,0,0,1,.083-.537c.068-.12.233-.224.222-.316-.027-.21-.723-.334-1.315-.295a3.184,3.184,0,0,0-1.44.467l-.328-.844a2.153,2.153,0,0,1-.112-1.518.614.614,0,0,1,.311-.406c.144-.059.325-.011.611.1.216.085.343.144.453.1.128-.056.208-.249.24-.618.053-.6-.071-.978-.2-1.07a.815.815,0,0,0-.813.011c-.153.085-.227.193-.359.184s-.265-.149-.367-.352a4.061,4.061,0,0,1,.463-2.464c.357.1.727.2,1.044.3a2.554,2.554,0,0,0,1.153.074c.24-.052.364-.126.388-.224s-.059-.179-.129-.288a.87.87,0,0,1-.129-.768.987.987,0,0,1,.55-.384,1.359,1.359,0,0,1,1.128.03c.176.1.5.355.461.619-.022.154-.184.283-.265.45a.315.315,0,0,0-.042.224.349.349,0,0,0,.24.213,5.119,5.119,0,0,0,2.266-.512,3.325,3.325,0,0,1,.675,1.507,3.247,3.247,0,0,1,.014.983c-.141.227-.291.369-.447.364-.171-.006-.264-.2-.456-.262a.617.617,0,0,0-.5.051c-.2.121-.316.506-.209,1.209a.9.9,0,0,0,.28.622.817.817,0,0,0,.84-.072c.076-.055.145-.129.242-.121s.183.086.275.264A3.322,3.322,0,0,1,267.256,214.682Z" transform="translate(1109.839 -20602.18)" fill="#e4e4e4" fill-rule="evenodd"/>
      <path id="Forma_650_copiar_2" data-name="Forma 650 copiar 2" d="M231.214,29.546a4.33,4.33,0,0,0,.419-1.262c.112-.681.071-1.053-.121-1.159a.532.532,0,0,0-.361.009c-.2.062-.3.222-.491.236a.714.714,0,0,1-.528-.3c-.454-.553-.285-1.662.2-1.834a.774.774,0,0,1,.595.109c.094.056.224.223.315.211.207-.028.323-.7.277-1.275a3.033,3.033,0,0,0-.478-1.387l.832-.327a2.176,2.176,0,0,1,1.5-.125c.263.088.392.186.406.3.021.165-.252.309-.34.533a.6.6,0,0,0,.013.524c.129.19.408.2.757.2.573,0,.921-.017,1.056-.2a.773.773,0,0,0-.02-.787c-.086-.147-.193-.218-.186-.345s.145-.258.345-.358a4.1,4.1,0,0,1,2.443.42c-.09.348-.185.69-.284,1.013a2.8,2.8,0,0,0-.055,1.313c.042.145.1.237.184.258.1.026.184-.067.306-.139a.831.831,0,0,1,.75-.063,1.15,1.15,0,0,1,.369.6,1.434,1.434,0,0,1,.022.874c-.11.224-.363.484-.608.453-.153-.02-.282-.175-.449-.251a.374.374,0,0,0-.222-.038.4.4,0,0,0-.261.181,4.135,4.135,0,0,0-.021.919,4.2,4.2,0,0,0,.437,1.52,3.736,3.736,0,0,1-2.287.495c-.227-.134-.369-.277-.365-.428s.194-.257.254-.444a.585.585,0,0,0-.057-.48c-.122-.187-.5-.3-1.2-.188a.9.9,0,0,0-.612.278.776.776,0,0,0,.081.811c.056.073.129.139.123.233s-.082.177-.258.269A3.894,3.894,0,0,1,231.214,29.546Z" transform="translate(1138.803 -20423.666)" fill="#d1d1d1" fill-rule="evenodd"/>
    </g>
  </g>
</svg>
