<svg id="Avatar_Cami_-_Serena" data-name="Avatar_Cami - Serena" xmlns="http://www.w3.org/2000/svg" xmlns:xlink="http://www.w3.org/1999/xlink" width="72" height="99" viewBox="0 0 72 99">
  <defs>
    <radialGradient id="radial-gradient" cx="0.573" cy="0.402" r="0.615" gradientUnits="objectBoundingBox">
      <stop offset="0"/>
      <stop offset="0" stop-color="#271d16" stop-opacity="0.839"/>
      <stop offset="1" stop-color="#f8b589" stop-opacity="0"/>
    </radialGradient>
    <filter id="Camisa" x="20.922" y="50.753" width="42.243" height="48.247" filterUnits="userSpaceOnUse">
      <feOffset input="SourceAlpha"/>
      <feGaussianBlur stdDeviation="1" result="blur"/>
      <feFlood flood-opacity="0.239"/>
      <feComposite operator="in" in2="blur"/>
      <feComposite in="SourceGraphic"/>
    </filter>
  </defs>
  <g id="Cami_serena_-_olho_escuro" data-name="Cami serena - olho escuro">
    <g id="Cabelo">
      <path id="Rabo_cavalo" data-name="Rabo cavalo" d="M130.892,64.744c-3-3.861-5.788-5.777-8.827-5.99-2.762-.193-7.453,1.921-12.443,8.158-4.4,5.5-8.408,14.032-7.231,23.752a28.423,28.423,0,0,0,5.317,13.941c3.759,4.929,8.518,7.367,8.4,11.773a3.258,3.258,0,0,1-1.063,2.685c-1.195.894-3.5.627-6.168-1.239a9.452,9.452,0,0,0,3.616,5.783c1.84,1.295,5.917,2.158,12.017.1a25.664,25.664,0,0,0,12.23-9.088C148.669,98.563,138.653,74.714,130.892,64.744Z" transform="translate(-102.184 -58.742)" fill="#eb5b1a" fill-rule="evenodd"/>
      <path id="Sombra_cabelo" data-name="Sombra cabelo" d="M165.278,160.874a12.722,12.722,0,0,0,12.443,3.511c3.78-1.059,7.944-4.254,8.083-7.952.231-6.141-11.576-9.015-15.314-17.039-5.736-12.313,2.6-31.669,11.911-32.943A9.866,9.866,0,0,1,188.568,108c10.274,5.85,13.248,22.552,9.89,35.421-2.941,11.276-11.44,22.457-21.376,24.269a11.459,11.459,0,0,1-7.763-.929A9.392,9.392,0,0,1,165.278,160.874Z" transform="translate(-158.583 -101.482)" fill="#eb5b1a" fill-rule="evenodd" opacity="0.32" style="mix-blend-mode: multiply;isolation: isolate"/>
      <path id="Sombra_cabelo-2" data-name="Sombra cabelo" d="M288.554,443.84c6.682,5.574,15.8,12.535,9.427,19.689,4.334-2.965,8.36-8.55,7.7-12.2C304.678,445.844,297.1,441,288.554,443.84Z" transform="translate(-268.709 -403.259)" fill="#cc4f17" fill-rule="evenodd" opacity="0.72" style="mix-blend-mode: multiply;isolation: isolate"/>
      <path id="brilho_cabelo" data-name="brilho cabelo" d="M235.262,565.994a5.534,5.534,0,0,1,1.6,4.131c-.317,2.694-3.725,4.125-3.509,4.543.338.656,9.19-1.526,9.04-4.543C242.3,568.465,239.506,566.7,235.262,565.994Z" transform="translate(-219.378 -513.567)" fill="#f97b43" fill-rule="evenodd" opacity="0.32" style="mix-blend-mode: screen;isolation: isolate"/>
      <path id="brilho_topo_cabelo" data-name="brilho topo cabelo" d="M128.238,61.215a14.361,14.361,0,0,0-4.786,0,15.829,15.829,0,0,0-5.636,2.272c-5.626,3.529-11.215,12.72-14.676,20.551A37.5,37.5,0,0,1,110.372,67.1c4.728-6.108,9.578-8.344,11.911-8.262A10.221,10.221,0,0,1,128.238,61.215Z" transform="translate(-103.039 -58.828)" fill="#f97b43" fill-rule="evenodd" opacity="0.4" style="mix-blend-mode: screen;isolation: isolate"/>
      <path id="Costas_franja" data-name="Costas franja" d="M574.331,247.629c-.82-.754,2.666-4.278,1.914-8.468-.54-3.011-2.673-5.648-6.061-7.952,1.391-4.2,4.561-6.925,7.869-7.229,5.305-.487,9.461,5.354,9.89,10.017C588.776,243.037,575.712,248.9,574.331,247.629Z" transform="translate(-520.333 -206.858)" fill="#eb5b1a" fill-rule="evenodd"/>
      <path id="sombra_costa_franja" data-name="sombra costa franja" d="M574.331,247.629c-.82-.754,2.666-4.278,1.914-8.468-.54-3.011-2.673-5.648-6.061-7.952,1.391-4.2,4.561-6.925,7.869-7.229,5.305-.487,9.461,5.354,9.89,10.017C588.776,243.037,575.712,248.9,574.331,247.629Z" transform="translate(-520.333 -206.859)" fill="#cc4f17" fill-rule="evenodd" opacity="0.71" style="mix-blend-mode: multiply;isolation: isolate"/>
      <path id="Pescoço" d="M416.82,524.528l.451,7.616a5.227,5.227,0,0,0,4.841,3.622,5.148,5.148,0,0,0,4.411-2.635q-.224-2.746-.449-5.493l-.2-2.41Z" transform="translate(-382.918 -477)" fill="#f8b589" fill-rule="evenodd"/>
      <path id="Sombra_pescoço" data-name="Sombra pescoço" d="M57.177,143.739l.206,3.158a10.589,10.589,0,0,0,4.531,1.579,8.67,8.67,0,0,0,4.531-.856v-1.959l-3.312-2.395Z" transform="translate(-23.327 -96.198)" opacity="0.32" fill="url(#radial-gradient)" style="mix-blend-mode: multiply;isolation: isolate"/>
      <path id="Rosto" d="M290.437,140.4a37.159,37.159,0,0,0,1.276,6.816,25.4,25.4,0,0,0,2.166,5.809c1.066,1.589,4.334,4.445,9.232,6.285a36.693,36.693,0,0,0,13.476,2.267c4.7-3.631,7.556-7.629,7.775-11.986.125-2.487-.632-3.9-.638-6.4-.006-2.712.883-4.316,1.063-7.022a20.008,20.008,0,0,0-.638-6.919c-.854-2.859-3.161-7.933-8.189-10.12-6.8-2.959-14.116,1.29-16.59,2.995a20.888,20.888,0,0,0-7.444,9.4A21.62,21.62,0,0,0,290.437,140.4Z" transform="translate(-270.346 -111.994)" fill="#f8b589" fill-rule="evenodd"/>
      <path id="Cabelo_E" data-name="Cabelo E" d="M271.815,101.771a4.972,4.972,0,0,0-2.659-1.652,5.216,5.216,0,0,0-3.084.31c-3.825,1.475-4.956,6.161-8.508,11.36-3.017,4.416-5.758,6.091-7.87,6.093a5.775,5.775,0,0,1-2.552-.62,18.621,18.621,0,0,1-.425-12.7c2.478-7.218,9.948-12.822,19.674-13.632,1.618.514,3.192.99,4.786,1.446,2.369.677,3.712,1.032,4.254,2.169C276.385,96.544,274.225,99.574,271.815,101.771Z" transform="translate(-230.488 -87.611)" fill="#eb5b1a" fill-rule="evenodd"/>
      <g id="Franja" transform="translate(34.879 0.903)">
        <path id="Sombra_cabelo_E" data-name="Sombra cabelo E" d="M436.25,102.574a7.957,7.957,0,0,1-2.552-4.853,8.691,8.691,0,0,0-.212-2.272,6.324,6.324,0,0,0-3.616-3.511h1.489l9.146,2.685Z" transform="translate(-429.87 -89.421)" fill="#eb5b1a" fill-rule="evenodd" opacity="0.48" style="mix-blend-mode: multiply;isolation: isolate"/>
        <path id="Sombra_franja_topo" data-name="Sombra franja topo" d="M493.047,136.029c.444.666,3.525-.725,6.315,0a8.974,8.974,0,0,1,3.4,1.756c1.157-4.263.57-7.664-1.063-8.468C498.776,127.877,492.241,134.818,493.047,136.029Z" transform="translate(-486.581 -122.773)" fill="#d54900" fill-rule="evenodd"/>
        <path id="Franja-2" data-name="Franja" d="M484.685,80.9s4.317-5.668,6.82-4.631,1.7,6.014,3.19,8.778a21.026,21.026,0,0,0,1.6,2.582c2.827,3.531,6.188,3.618,8.933,7.229a7.07,7.07,0,0,1,1.6,3.718c.182,3.125-2.331,5.656-4.148,6.816-2.42,1.545-5.523,1.515-5.53,1.962-.005.327,1.471.706,3.084.826a13.9,13.9,0,0,0,6.806-1.136c5.593-2.565,7.585-8.083,8.082-11.256.511-3.266-.384-7.209-3.4-12.6-6.351-11.335-12.105-15.86-16.483-15.49a11.911,11.911,0,0,0-3.3,1.033c-4.811,2.249-8.994,7.482-7.763,11.256A3.609,3.609,0,0,0,484.685,80.9Z" transform="translate(-478.129 -67.66)" fill="#eb5b1a" fill-rule="evenodd"/>
        <path id="Forma_18" data-name="Forma 18" d="M553.181,68.923c7.137-.087,6.466,9.11,9.148,14.571,1.588,3.233,7.687,7.793,9.772,13.125,1.25,3.184-.047,6.964-3.3,10.382a14.9,14.9,0,0,0,8.258-14.234c-.251-4.766-4.089-11.148-7.269-15.736-6.326-8.889-10.076-9.046-11.02-9.327S556.1,67.423,553.181,68.923Z" transform="translate(-539.982 -67.56)" fill="#f97b43" fill-rule="evenodd" opacity="0.32" style="mix-blend-mode: screen;isolation: isolate"/>
      </g>
    </g>
    <g id="Nariz_boca" data-name="Nariz+boca" transform="translate(38.108 35.589)">
      <g id="Boca" transform="translate(0 3.958)">
        <path id="Labio_superior" data-name="Labio superior" d="M464.948,446.727a14.756,14.756,0,0,0,3.935.826c2.189.149,3.745-.27,5.955-.1.572.043,1.137.112,1.7.206l1.063-.31a7.14,7.14,0,0,1-1.383.93C472.89,449.985,468.561,448.86,464.948,446.727Z" transform="translate(-464.19 -446.196)" fill="#f24e3e" fill-rule="evenodd"/>
        <path id="Labio_inferior" data-name="Labio inferior" d="M460.919,444.627c.1-.175,3.237,1.819,7.338,1.962a15.719,15.719,0,0,0,5.53-.826,2.793,2.793,0,0,0,.319-.516,8.581,8.581,0,0,1-1.489,1.342,6.314,6.314,0,0,1-2.552.826,12.286,12.286,0,0,1-6.487-1.136A7.89,7.89,0,0,1,460.919,444.627Z" transform="translate(-460.586 -444.303)" fill="#d92a19" fill-rule="evenodd"/>
        <path id="Canto_boca_E" data-name="Canto boca E" d="M458.776,442.308c.081-.27-.84-.837-.957-.722-.039.037.009.15.106.31a1.193,1.193,0,0,0,.744.517A.183.183,0,0,0,458.776,442.308Z" transform="translate(-457.806 -441.57)" fill="#343434" fill-rule="evenodd"/>
        <path id="Canto_boca_D" data-name="Canto boca D" d="M581.111,448.325c-.032-.041,0-.146.106-.31.123-.194.241-.334.319-.31.1.031.153.342,0,.516C581.415,448.361,581.171,448.4,581.111,448.325Z" transform="translate(-568.017 -447.071)" fill="#343434" fill-rule="evenodd"/>
      </g>
      <path id="Nariz" d="M518.062,404.856c-.039-.841,1.922-1.481,3.084-1.652a2.413,2.413,0,0,1,1.914.31,1.466,1.466,0,0,1,.425.826,3.9,3.9,0,0,1-.532.826,4.2,4.2,0,0,1-1.808,1.239C519.278,406.19,518.091,405.5,518.062,404.856Z" transform="translate(-511.668 -403.155)" fill="#f1804a" fill-rule="evenodd"/>
    </g>
    <g id="olhos" transform="translate(19.027 20.112)">
      <g id="Oculos">
        <path id="Oculos_E" data-name="Oculos E" d="M366.037,263.26c.434-4.928-3.624-9.989-8.981-9.967a9.1,9.1,0,1,0,.855,18.169A9.133,9.133,0,0,0,366.037,263.26Zm-1.433.031a7.529,7.529,0,1,0-6.823,6.888,7.67,7.67,0,0,0,6.823-6.887Z" transform="translate(-340.796 -253.293)" fill="#262626" fill-rule="evenodd"/>
        <path id="Centro_oculos" data-name="Centro oculos" d="M513.163,336.476a3.08,3.08,0,0,1,2.46-.831,2.968,2.968,0,0,1,1.6.727q.161-.623.321-1.246a4.336,4.336,0,0,0-4.49-.207Z" transform="translate(-488.136 -325.99)" fill="#262626" fill-rule="evenodd"/>
        <path id="Aste_E" data-name="Aste E" d="M289.558,321l-6.93,1.851s-.69-.526-1.311-1.051l8.349-2.357Z" transform="translate(-281.316 -312.592)" fill="#262626" fill-rule="evenodd"/>
        <g id="Olho_E" data-name="Olho E" transform="translate(9.297 3.62)">
          <path id="Fundo_olho" data-name="Fundo olho" d="M397.633,301.745a4.709,4.709,0,0,0,2.446,3.615,9.374,9.374,0,0,0,3.3.516,5.23,5.23,0,0,0,1.7-.206c1.773-.828,2.265-3.635,1.808-5.68-.29-1.3-1.3-3.711-3.4-4.131C400.7,295.3,397.325,298.632,397.633,301.745Z" transform="translate(-394.23 -295.032)" fill="#fff" fill-rule="evenodd"/>
          <path id="Cilios_E" data-name="Cilios E" d="M378.49,294.468a5.254,5.254,0,0,0-.957-2.478,4.883,4.883,0,0,0-4.041-2.169c-2.166.148-4.233,2.285-4.361,5.267a4.735,4.735,0,0,1-3.4-1.859,3.319,3.319,0,0,0,1.6,0,3.234,3.234,0,0,0,.957-.413,2.226,2.226,0,0,1-1.6-1.549v-.1a2.7,2.7,0,0,0,1.383,0,2.84,2.84,0,0,0,1.276-.826,7.55,7.55,0,0,1,1.914-1.446,4.8,4.8,0,0,1,2.127-.516,5.06,5.06,0,0,1,3.19,1.239A5.735,5.735,0,0,1,378.49,294.468Z" transform="translate(-365.728 -288.376)" fill="#292929" fill-rule="evenodd"/>
          <path id="Olho_E-2" data-name="Olho E" d="M407.428,314.759a3.777,3.777,0,0,1,3.4-4.337,3.818,3.818,0,0,1,3.51,3.821,3.659,3.659,0,0,1-2.659,3.614A3.788,3.788,0,0,1,407.428,314.759Z" transform="translate(-402.962 -308.15)" fill="#2e2d36" fill-rule="evenodd"/>
          <path id="Pupila_E" data-name="Pupila E" d="M421.358,326.564a2.146,2.146,0,1,1,4.236,0,2.327,2.327,0,0,1-1.895,2.274A2.359,2.359,0,0,1,421.358,326.564Z" transform="translate(-415.453 -320.395)" fill="#1f1f1f" fill-rule="evenodd"/>
          <path id="Brilho_E" data-name="Brilho E" d="M456.831,340.595a1.8,1.8,0,0,0-1.063-.207,1.753,1.753,0,0,0-.639.207.645.645,0,0,0-.212.413.679.679,0,0,0,.319.619,1.352,1.352,0,0,0,1.6-.1v-.929Z" transform="translate(-445.452 -335.018)" fill="#fff" fill-rule="evenodd"/>
          <path id="Forma_11" data-name="Forma 11" d="M415.815,384.436c-.031.062.211.237.319.31a4.818,4.818,0,0,0,2.552.723c1.721,0,3.038-.071,3.084-.413a.255.255,0,0,0-.106-.206,8.643,8.643,0,0,1-3.19.206C417.242,384.9,415.878,384.31,415.815,384.436Z" transform="translate(-410.498 -374.523)" fill-rule="evenodd"/>
        </g>
        <path id="Aste_D" data-name="Aste D" d="M584.9,312.184l-7.7,1.007q-.16-.654-.321-1.309l8.126-1.208Z" transform="translate(-545.122 -304.734)" fill-rule="evenodd"/>
        <g id="Olho_D" data-name="Olho D" transform="translate(29.17 3.817)">
          <path id="Fundo_olho_D" data-name="Fundo olho D" d="M554.612,305.421a4.311,4.311,0,0,0,4.042-.516,3.648,3.648,0,0,0,1.382-2.685,7.881,7.881,0,0,1,.107-.929,5.829,5.829,0,0,0,.318-1.859,2.7,2.7,0,0,0-2.552-2.066c-1.01.064-2,1.174-2.872,3.821A10.079,10.079,0,0,0,554.612,305.421Z" transform="translate(-554.386 -296.634)" fill="#fff" fill-rule="evenodd"/>
          <path id="Cilios_D" data-name="Cilios D" d="M555.871,295.359c.578-2.725,2.572-4.113,3.935-3.821a2.9,2.9,0,0,1,1.808,1.859,7.611,7.611,0,0,0,.957-2.375l-1.062.31a1.96,1.96,0,0,0-.532-.62,2.186,2.186,0,0,0-1.17-.413,3.661,3.661,0,0,0-2.659,1.136A4.689,4.689,0,0,0,555.871,295.359Z" transform="translate(-555.538 -290.289)" fill="#292929" fill-rule="evenodd"/>
          <path id="Olho_D-2" data-name="Olho D" d="M553.367,310.489c-.162,1.743-.512,2.187-.425,3.3a3.092,3.092,0,0,0,2.127.413c1.7-.344,2.488-2.355,2.552-3.718a3.336,3.336,0,0,0-.639-2.272c-.448-.577-.72-.769-1.169-.826C554.585,307.308,553.529,308.745,553.367,310.489Z" transform="translate(-552.929 -305.627)" fill="#2e2d36" fill-rule="evenodd"/>
          <path id="Pupila_D" data-name="Pupila D" d="M555.543,317.883a1.64,1.64,0,0,1,1.276-.516c.9.108,1.375,1.256,1.383,2.065a2.472,2.472,0,0,1-2.127,2.478,1.916,1.916,0,0,1-1.17-.413,9.018,9.018,0,0,1,.319-3.2Z" transform="translate(-554.679 -314.569)" fill="#1f1f1f" fill-rule="evenodd"/>
          <path id="Brilho_D" data-name="Brilho D" d="M584.785,333.083a2.022,2.022,0,0,0-1.276,0,.5.5,0,0,0,0,.929,1.97,1.97,0,0,0,1.276,0Z" transform="translate(-579.986 -328.581)" fill="#fff" fill-rule="evenodd"/>
          <path id="Linha_olho_D" data-name="Linha olho D" d="M557.151,372.073a7.291,7.291,0,0,0,1.914.1,5.059,5.059,0,0,0,1.808-.62,1.173,1.173,0,0,1-.106.206,2.064,2.064,0,0,1-1.7.723A3.145,3.145,0,0,1,557.151,372.073Z" transform="translate(-556.713 -363.183)" fill="#343434" fill-rule="evenodd"/>
        </g>
        <path id="Oculos_D" data-name="Oculos D" d="M548.032,269.1c-.251-4.413,3.414-9.249,6.949-8.929,3.179.288,5.671,4.7,5.345,8.513-.316,3.7-3.377,7.873-6.842,7.579C550.349,276,548.207,272.192,548.032,269.1Zm1.13-.06c-.2-3.6,2.787-7.55,5.674-7.289,2.595.236,4.629,3.835,4.364,6.95-.258,3.024-2.758,6.427-5.586,6.187-2.559-.217-4.307-3.328-4.45-5.848Z" transform="translate(-519.37 -259.45)" fill="#262626" fill-rule="evenodd"/>
      </g>
    </g>
    <g id="Oculos-2" data-name="Oculos" transform="translate(19.027 20.112)">
      <path id="Oculos_E-2" data-name="Oculos E" d="M366.037,263.26c.434-4.928-3.624-9.989-8.981-9.967a9.1,9.1,0,1,0,.855,18.169A9.133,9.133,0,0,0,366.037,263.26Zm-1.433.031a7.529,7.529,0,1,0-6.823,6.888,7.67,7.67,0,0,0,6.823-6.887Z" transform="translate(-340.796 -253.293)" fill="#343434" fill-rule="evenodd"/>
      <path id="Aste_D-2" data-name="Aste D" d="M584.9,312.184l-7.7,1.007q-.16-.654-.321-1.309l8.126-1.208Z" transform="translate(-545.122 -304.734)" fill-rule="evenodd"/>
      <g id="olhos-2" data-name="olhos" transform="translate(9.297 3.62)">
        <g id="Olho_E-3" data-name="Olho E">
          <path id="Fundo_olho-2" data-name="Fundo olho" d="M397.633,301.745a4.709,4.709,0,0,0,2.446,3.615,9.374,9.374,0,0,0,3.3.516,5.23,5.23,0,0,0,1.7-.206c1.773-.828,2.265-3.635,1.808-5.68-.29-1.3-1.3-3.711-3.4-4.131C400.7,295.3,397.325,298.632,397.633,301.745Z" transform="translate(-394.23 -295.032)" fill="#fff" fill-rule="evenodd"/>
          <path id="Cilios_E-2" data-name="Cilios E" d="M378.49,294.468a5.254,5.254,0,0,0-.957-2.478,4.883,4.883,0,0,0-4.041-2.169c-2.166.148-4.233,2.285-4.361,5.267a4.735,4.735,0,0,1-3.4-1.859,3.319,3.319,0,0,0,1.6,0,3.234,3.234,0,0,0,.957-.413,2.226,2.226,0,0,1-1.6-1.549v-.1a2.7,2.7,0,0,0,1.383,0,2.84,2.84,0,0,0,1.276-.826,7.55,7.55,0,0,1,1.914-1.446,4.8,4.8,0,0,1,2.127-.516,5.06,5.06,0,0,1,3.19,1.239A5.735,5.735,0,0,1,378.49,294.468Z" transform="translate(-365.728 -288.376)" fill="#343434" fill-rule="evenodd"/>
          <path id="Olho_E-4" data-name="Olho E" d="M407.428,314.759a3.777,3.777,0,0,1,3.4-4.337,3.818,3.818,0,0,1,3.51,3.821,3.659,3.659,0,0,1-2.659,3.614A3.788,3.788,0,0,1,407.428,314.759Z" transform="translate(-402.962 -308.15)" fill="#2e2d36" fill-rule="evenodd"/>
          <path id="Pupila_E-2" data-name="Pupila E" d="M421.358,326.564a2.146,2.146,0,1,1,4.236,0,2.327,2.327,0,0,1-1.895,2.274A2.359,2.359,0,0,1,421.358,326.564Z" transform="translate(-415.453 -320.395)" fill="#343434" fill-rule="evenodd"/>
          <path id="Brilho_E-2" data-name="Brilho E" d="M456.831,340.595a1.8,1.8,0,0,0-1.063-.207,1.753,1.753,0,0,0-.639.207.645.645,0,0,0-.212.413.679.679,0,0,0,.319.619,1.352,1.352,0,0,0,1.6-.1v-.929Z" transform="translate(-445.452 -335.018)" fill="#fff" fill-rule="evenodd"/>
          <path id="Forma_11-2" data-name="Forma 11" d="M415.815,384.436c-.031.062.211.237.319.31a4.818,4.818,0,0,0,2.552.723c1.721,0,3.038-.071,3.084-.413a.255.255,0,0,0-.106-.206,8.643,8.643,0,0,1-3.19.206C417.242,384.9,415.878,384.31,415.815,384.436Z" transform="translate(-410.498 -374.523)" fill-rule="evenodd"/>
        </g>
        <g id="Olho_D-3" data-name="Olho D" transform="translate(19.862 0.197)">
          <path id="Fundo_olho_D-2" data-name="Fundo olho D" d="M554.612,305.421a4.311,4.311,0,0,0,4.042-.516,3.648,3.648,0,0,0,1.382-2.685,7.881,7.881,0,0,1,.107-.929,5.829,5.829,0,0,0,.318-1.859,2.7,2.7,0,0,0-2.552-2.066c-1.01.064-2,1.174-2.872,3.821A10.079,10.079,0,0,0,554.612,305.421Z" transform="translate(-554.375 -296.634)" fill="#fff" fill-rule="evenodd"/>
          <path id="Cilios_D-2" data-name="Cilios D" d="M555.871,295.359c.578-2.725,2.572-4.113,3.935-3.821a2.9,2.9,0,0,1,1.808,1.859,7.611,7.611,0,0,0,.957-2.375l-1.062.31a1.96,1.96,0,0,0-.532-.62,2.186,2.186,0,0,0-1.17-.413,3.661,3.661,0,0,0-2.659,1.136A4.689,4.689,0,0,0,555.871,295.359Z" transform="translate(-555.527 -290.289)" fill="#343434" fill-rule="evenodd"/>
          <path id="Olho_D-4" data-name="Olho D" d="M553.367,310.489a8.169,8.169,0,0,0-.425,3.3,3.092,3.092,0,0,0,2.127.413c1.7-.344,2.488-2.355,2.552-3.718a3.336,3.336,0,0,0-.639-2.272,1.93,1.93,0,0,0-1.169-.826C554.585,307.308,553.627,309.75,553.367,310.489Z" transform="translate(-552.918 -305.627)" fill="#2e2d36" fill-rule="evenodd"/>
          <path id="Pupila_D-2" data-name="Pupila D" d="M555.543,317.883a1.64,1.64,0,0,1,1.276-.516c.9.108,1.375,1.256,1.383,2.065a2.472,2.472,0,0,1-2.127,2.478,1.916,1.916,0,0,1-1.17-.413,9.018,9.018,0,0,1,.319-3.2Z" transform="translate(-554.668 -314.569)" fill="#343434" fill-rule="evenodd"/>
          <path id="Brilho_D-2" data-name="Brilho D" d="M584.785,333.083a2.022,2.022,0,0,0-1.276,0,.5.5,0,0,0,0,.929,1.97,1.97,0,0,0,1.276,0Z" transform="translate(-579.975 -328.581)" fill="#fff" fill-rule="evenodd"/>
          <path id="Linha_olho_D-2" data-name="Linha olho D" d="M557.151,372.073a7.291,7.291,0,0,0,1.914.1,5.059,5.059,0,0,0,1.808-.62,1.173,1.173,0,0,1-.106.206,2.064,2.064,0,0,1-1.7.723A3.145,3.145,0,0,1,557.151,372.073Z" transform="translate(-556.702 -363.183)" fill="#343434" fill-rule="evenodd"/>
        </g>
      </g>
      <path id="Oculos_D-2" data-name="Oculos D" d="M548.032,269.1c-.251-4.413,3.414-9.249,6.949-8.929,3.179.288,5.671,4.7,5.345,8.513-.316,3.7-3.377,7.873-6.842,7.579C550.349,276,548.207,272.192,548.032,269.1Zm1.13-.06c-.2-3.6,2.787-7.55,5.674-7.289,2.595.236,4.629,3.835,4.364,6.95-.258,3.024-2.758,6.427-5.586,6.187-2.559-.217-4.307-3.328-4.45-5.848Z" transform="translate(-519.37 -259.45)" fill="#343434" fill-rule="evenodd"/>
      <path id="Centro_oculos-2" data-name="Centro oculos" d="M513.163,336.476a3.08,3.08,0,0,1,2.46-.831,2.968,2.968,0,0,1,1.6.727q.161-.623.321-1.246a4.336,4.336,0,0,0-4.49-.207Z" transform="translate(-488.136 -325.99)" fill="#343434" fill-rule="evenodd"/>
      <path id="Aste_E-2" data-name="Aste E" d="M289.558,321l-6.93,1.851s-.69-.526-1.311-1.051l8.349-2.357Z" transform="translate(-281.316 -312.592)" fill="#343434" fill-rule="evenodd"/>
    </g>
    <g id="Sombrancelhas" transform="translate(29.376 16.163)">
      <path id="Sombrancelha_E" data-name="Sombrancelha E" d="M388.1,217.238a7.705,7.705,0,0,0-4.892-2.065c-4.9-.169-7.759,4.85-7.551,5.06.17.172,2.631-2.756,6.381-2.891a9.2,9.2,0,0,1,4.786,1.239,1.023,1.023,0,0,0,1.489,0A.951.951,0,0,0,388.1,217.238Z" transform="translate(-375.652 -215.169)" fill="#eb5b1a" fill-rule="evenodd"/>
      <path id="Sommbranceçha_D" data-name="Sommbranceçha D" d="M565.641,222.588a.973.973,0,0,0-.107.93,1.16,1.16,0,0,0,1.489.413A5.1,5.1,0,0,1,569.47,223a4.911,4.911,0,0,1,.957,0,2.115,2.115,0,0,0-.532-1.859,6.014,6.014,0,0,0-1.489.1A6.1,6.1,0,0,0,565.641,222.588Z" transform="translate(-545.318 -220.519)" fill="#eb5b1a" fill-rule="evenodd"/>
    </g>
    <g id="Braço_direito_camisa" data-name="Braço direito+camisa" transform="translate(23.922 41.195)">
      <path id="Fundo_braço" data-name="Fundo braço" d="M632.282,734.494c.856-1.131.182-2.551.855-3.272.773-.827,2.826-.219,5.132.873,4.144.8,6.736,4.119,6.522,7.2a6.513,6.513,0,0,1-2.887,4.69,5.535,5.535,0,0,1-2.138-.327,5.854,5.854,0,0,1-1.925-1.2,88.817,88.817,0,0,1-6.522-7.2A2.562,2.562,0,0,0,632.282,734.494Z" transform="translate(-598.604 -703.565)" fill="#f1804a" fill-rule="evenodd"/>
      <g id="Camisa-2" data-name="Camisa" transform="translate(0 12.558)">
        <g transform="matrix(1, 0, 0, 1, -23.92, -53.75)" filter="url(#Camisa)">
          <path id="Camisa-3" data-name="Camisa" d="M334.688,579.42a7.779,7.779,0,0,0,5.024,1.977c1.6-.033,4.348-1.345,4.7-1.456.845-.264,1.523-.314,2.352-.625a12.289,12.289,0,0,1,3.528-1.352c1.308-.077,2.859.489,4.7,2.289,4.611,4.5,4.157,12.713,4.063,14.877a137.009,137.009,0,0,0,1.818,25.074H334.367l-9.729-30.38a8.767,8.767,0,0,1,1.39-2.809,11.191,11.191,0,0,1,3.635-2.913A16.567,16.567,0,0,0,334.688,579.42Z" transform="translate(-300.72 -524.2)" fill="#f24e3e" fill-rule="evenodd"/>
        </g>
        <path id="Sombra_gola" data-name="Sombra gola" d="M421.837,609.195c.08-.212,2.939,1.312,6.415.545,2.319-.511,3.845-1.9,3.956-1.745.132.178-1.517,2.247-4.062,2.836C424.816,611.6,421.75,609.424,421.837,609.195Z" transform="translate(-411.466 -604.888)" fill="#d92a19" fill-rule="evenodd" opacity="0.56" style="mix-blend-mode: multiply;isolation: isolate"/>
      </g>
      <path id="Sombra_camisa_E" data-name="Sombra camisa E" d="M588.946,659.937a18.165,18.165,0,0,0-6.736-6.749,13.436,13.436,0,0,1,4.7,1.038c2.458,1.044,3.571,2.273,3.635,3.011A3.36,3.36,0,0,1,588.946,659.937Z" transform="translate(-554.733 -632.878)" fill="#d92a19" fill-rule="evenodd" opacity="0.64" style="mix-blend-mode: multiply;isolation: isolate"/>
      <path id="Braço_D" data-name="Braço D" d="M615.045,505.187a4.935,4.935,0,0,1-2.138-.1,4.788,4.788,0,0,1-2.052-1.157,4.45,4.45,0,0,1-.728-.919,38.754,38.754,0,0,1-1.925-3.634,46.721,46.721,0,0,1-2.673-7.787c-.562-2-1.158-3.979-1.817-6.021l-2.46-5.4c.068-1.328.173-2.625.321-3.945.227-2.025.546-4.024.962-6.022l1.283.623a6.911,6.911,0,0,1,.749,2.388c.143,1.222-.324,2.862,0,3.011.352.162,1.308-1.088,1.71-1.661,1.107-1.575,1.757-3.3,2.566-4.568a12.177,12.177,0,0,1,2.779-3.011.852.852,0,0,1,.855-.1.739.739,0,0,1,.321.312,2.853,2.853,0,0,1,1.283-1.558c.244-.134,1.188-.6,1.6-.207a1.046,1.046,0,0,1,.106,1.038,1.144,1.144,0,0,1,1.177-.207,1.157,1.157,0,0,1,.32,1.661l-1.818,3.634c.5-.62,1.2-1.39,1.5-1.246.263.127.137.924-.107,1.869-.809,3.141-3.3,8.19-5.453,12.25a2.545,2.545,0,0,0-.213.83,2.684,2.684,0,0,0,.427,1.661c.245.461.49.9.748,1.35.968,1.673,3.771,5.553,5.132,9.137a6.423,6.423,0,0,1,.321,4.568A6.267,6.267,0,0,1,615.045,505.187Z" transform="translate(-571.745 -465.268)" fill="#f8b589" fill-rule="evenodd"/>
      <path id="Sombra_mão" data-name="Sombra mão" d="M669.406,539.934a11.119,11.119,0,0,1,5.453,2.492Z" transform="translate(-632.627 -531.293)" fill="#f1804a" fill-rule="evenodd"/>
      <path id="Sombra_dedo" data-name="Sombra dedo" d="M685.432,485.814a21.982,21.982,0,0,0-2.994,6.126Z" transform="translate(-644.27 -482.749)" fill="#f1804a" fill-rule="evenodd"/>
      <path id="Sombra_dedo-2" data-name="Sombra dedo" d="M704.43,477.8a27.339,27.339,0,0,0-3.955,7.682Z" transform="translate(-660.383 -475.561)" fill="#f1804a" fill-rule="evenodd"/>
      <path id="Sombra_dedo-3" data-name="Sombra dedo" d="M718.542,526.906a7.834,7.834,0,0,0-2.031,3.322Z" transform="translate(-674.708 -519.607)" fill="#f1804a" fill-rule="evenodd"/>
      <path id="Sombra_mão-2" data-name="Sombra mão" d="M635.233,568.609a3.535,3.535,0,0,1,3.312,1.646,3.321,3.321,0,0,1-.081,3.612,4.12,4.12,0,0,0-.453-3.3A4.344,4.344,0,0,0,635.233,568.609Z" transform="translate(-602.1 -557.001)" fill="#f1804a" fill-rule="evenodd"/>
    </g>
    <g id="Braço_esquerdo" data-name="Braço esquerdo" transform="translate(22.495 61.269)">
      <path id="Sombra_braço" data-name="Sombra braço" d="M399.413,807.563l3.883,16.313h-1.769c-4.431-7.75-9.094-16.877-7.018-18.474C398.554,808.009,399.413,807.563,399.413,807.563Z" transform="translate(-385.283 -789.26)" fill="#d92a19" fill-rule="evenodd" opacity="0.56" style="mix-blend-mode: multiply;isolation: isolate"/>
      <path id="Fundo_manga" data-name="Fundo manga" d="M325.637,808.647a11.611,11.611,0,0,0,3.635.83,12.659,12.659,0,0,0,8.66-2.907A9.521,9.521,0,0,0,325.637,808.647Z" transform="translate(-324.215 -789.287)" fill="#8b060d" fill-rule="evenodd"/>
      <path id="Braço_E" data-name="Braço E" d="M349.144,804.874l3.912,17.539H344.97l-6.3-18.889Z" transform="translate(-335.854 -787.797)" fill="#f8b589" fill-rule="evenodd"/>
      <path id="Sombra_manga" data-name="Sombra manga" d="M394.531,683.612a1.326,1.326,0,0,0,.914-.1c2.035-1.071.889-8.475-2.994-13.6-1.291-1.7-2.853-3.14-3.207-2.907-.62.408,3.43,6.563,4.811,13.809C394.233,681.751,394.343,682.66,394.531,683.612Z" transform="translate(-380.979 -665.324)" fill="#d92a19" fill-rule="evenodd" opacity="0.56" style="mix-blend-mode: multiply;isolation: isolate"/>
      <path id="Manga" d="M313.728,670.336a23.638,23.638,0,0,1,9.836-2.285,24.137,24.137,0,0,1,2.435.1,17.342,17.342,0,0,0-2.221-12.456c-1.589-2.461-3.948-5.119-6.308-4.776a5.977,5.977,0,0,0-2.887,2.18,10.453,10.453,0,0,0-2.138,4.984,15.726,15.726,0,0,0,.428,6.021A42.154,42.154,0,0,1,313.728,670.336Z" transform="translate(-312.306 -650.892)" fill="#f24e3e" fill-rule="evenodd"/>
    </g>
    <path id="Orelha" d="M240.224,338.313c-1.532-1.491-3.343-2.018-4.6-1.51-1.937.783-1.941,3.78-1.6,5.336,1.065,4.916,8.293,8.107,9.943,6.746C245.6,347.536,242.161,341.4,240.224,338.313Z" transform="translate(-219.764 -307.76)" fill="#f8b589" fill-rule="evenodd"/>
    <g id="Estampa" transform="translate(36.98 65.085)">
      <path id="P" d="M572.227,703.192l-.474-2.674a2.2,2.2,0,0,1,1.262-2.229,2.279,2.279,0,0,1,3,1.189,1.768,1.768,0,0,1-.789,1.782,2.148,2.148,0,0,1-1.735.3l.316,1.486a.8.8,0,0,1-.474.594A.933.933,0,0,1,572.227,703.192Zm.789-3.566a1.258,1.258,0,0,1,1.735-.3.7.7,0,0,1,.316.594,1.274,1.274,0,0,1-1.735.594.8.8,0,0,1-.316-.891Z" transform="translate(-558.501 -696.875)" fill="#fff" fill-rule="evenodd"/>
      <path id="I" d="M526.982,718.4l1.263,2.822a.977.977,0,0,0,1.262.595.875.875,0,0,0,.473-1.04l-1.1-2.823a.941.941,0,0,0-.671-.741,1.021,1.021,0,0,0-1,.236A.885.885,0,0,0,526.982,718.4Z" transform="translate(-518.463 -714.012)" fill="#fff" fill-rule="evenodd"/>
      <path id="C" d="M466.181,734.707a1.4,1.4,0,0,0-1.262.594,1.188,1.188,0,0,0,0,1.337,1.124,1.124,0,0,0,.631.445,1.686,1.686,0,0,0,1.736-1.04c.267-.149.594-.267.789-.149.272.166.29.8-.158,1.635-1.32,1.286-2.928,1.585-3.944,1.04a2.286,2.286,0,0,1-.946-1.04,2.454,2.454,0,0,1,.157-2.523,2.791,2.791,0,0,1,2.367-1.191.652.652,0,0,1,.608.262A.571.571,0,0,1,466.181,734.707Z" transform="translate(-461.132 -728.983)" fill="#fff" fill-rule="evenodd"/>
      <path id="Logo_inferior_" data-name="Logo inferior " d="M491.425,744.209a7.871,7.871,0,0,1,.315,2.971,25.251,25.251,0,0,1-15.778,2.526c-.226-.024-.345-.193-.315-.3a.3.3,0,0,1,.315-.148,27.237,27.237,0,0,0,15.462-5.051Z" transform="translate(-472.651 -738.337)" fill="#fff" fill-rule="evenodd"/>
      <path id="Logo_Superior" data-name="Logo Superior" d="M447.588,689.695l1.42,1.635a23.741,23.741,0,0,1,10.57-4.606,23.143,23.143,0,0,1,3.471-.3.149.149,0,1,0,0-.3,19.271,19.271,0,0,0-15.462,3.566Z" transform="translate(-447.588 -685.754)" fill="#fff" fill-rule="evenodd"/>
    </g>
    <g id="Crachá" transform="translate(30.799 54.673)">
      <path id="Fita_E" data-name="Fita E" d="M389.78,596.444c1.951,2.485,3.78,4.978,5.56,7.579a142.794,142.794,0,0,1,10.05,17.13l1.176-.519a144.23,144.23,0,0,0-14.434-26.578A3.144,3.144,0,0,0,389.78,596.444Z" transform="translate(-389.78 -593.313)" fill="#2e2d36" fill-rule="evenodd"/>
      <path id="Fita_D" data-name="Fita D" d="M510.141,587.948a73.037,73.037,0,0,1,3.014,12.523,79.793,79.793,0,0,1,1.07,13.5c.347.426.683.689.962.623,1.98-.469-.571-17.337-2.246-27.484a2.209,2.209,0,0,0-1.607,0A1.814,1.814,0,0,0,510.141,587.948Z" transform="translate(-497.118 -586.957)" fill="#2e2d36" fill-rule="evenodd"/>
      <path id="Sombra_crachá" data-name="Sombra crachá" d="M522.61,856.308a1.352,1.352,0,0,0-.535.519l1.283,9.655,6.2-1.142a3.162,3.162,0,0,0,.855-1.453C531.3,860.318,524.777,855.2,522.61,856.308Z" transform="translate(-507.947 -828.408)" fill="#8b060d" fill-rule="evenodd" style="mix-blend-mode: multiply;isolation: isolate"/>
      <path id="Fundo_crechá" data-name="Fundo crechá" d="M521.073,840.054a20.906,20.906,0,0,1,6.521-1.454,30.247,30.247,0,0,1,2.138,9.655,14.67,14.67,0,0,1-6.629,1.661c-.449-1.625-.835-3.229-1.176-4.879S521.3,841.735,521.073,840.054Z" transform="translate(-507.067 -812.525)" fill="#c7c7c7" fill-rule="evenodd"/>
      <path id="Crachá-2" data-name="Crachá" d="M531.636,852.082a16.168,16.168,0,0,1,5.047-1.125,23.449,23.449,0,0,1,1.655,7.472,11.351,11.351,0,0,1-5.129,1.285c-.348-1.257-.647-2.5-.91-3.776S531.815,853.382,531.636,852.082Z" transform="translate(-516.504 -823.602)" fill="#fff" fill-rule="evenodd"/>
      <path id="Foto" d="M541.119,860.585l3.849-.934q.268,1.4.534,2.8l-3.635.934Q541.494,861.987,541.119,860.585Z" transform="translate(-524.975 -831.395)" fill="#f24e3e" fill-rule="evenodd"/>
    </g>
  </g>
</svg>
