<svg id="icone_Baixa_UR" data-name="icone_Baixa UR" xmlns="http://www.w3.org/2000/svg" width="24" height="24" viewBox="0 0 24 24">
  <g id="icone_safe_area" data-name="icone+safe area">
    <rect id="Margem_de_segurança" data-name="Margem de segurança" width="24" height="24" fill="none"/>
    <g id="Baixa_UR" data-name="Baixa UR" transform="translate(-1343.873 20416)">
      <g id="predio" transform="translate(1348.373 -20409)">
        <rect id="Rectangle_2831" data-name="Rectangle 2831" width="16" height="16" rx="1" transform="translate(-1.5 -1)" fill="#e6e6e4"/>
        <g id="Group_4999" data-name="Group 4999" transform="translate(9.253 0.061)">
          <path id="Forma_21_copiar_9" data-name="Forma 21 copiar 9" d="M329.978,242.536a1.866,1.866,0,1,1-1.868,1.926A1.9,1.9,0,0,1,329.978,242.536Z" transform="translate(-328.108 -236.596)" fill="#bebebe" fill-rule="evenodd"/>
          <path id="Forma_21_copiar_7" data-name="Forma 21 copiar 7" d="M330.321,70.614a1.866,1.866,0,1,1-1.868,1.926A1.9,1.9,0,0,1,330.321,70.614Z" transform="translate(-328.44 -70.614)" fill="#bebebe" fill-rule="evenodd"/>
        </g>
        <g id="Group_4998" data-name="Group 4998">
          <path id="Forma_21_copiar_6" data-name="Forma 21 copiar 6" d="M96.353,242.4a1.866,1.866,0,1,1-1.868,1.926A1.9,1.9,0,0,1,96.353,242.4Z" transform="translate(-94.465 -236.403)" fill="#bebebe" fill-rule="evenodd"/>
          <path id="Forma_21_copiar_8" data-name="Forma 21 copiar 8" d="M95.836,68.849a1.866,1.866,0,1,1-1.868,1.926A1.9,1.9,0,0,1,95.836,68.849Z" transform="translate(-93.966 -68.849)" fill="#bebebe" fill-rule="evenodd"/>
        </g>
        <g id="porta" transform="translate(4.517 10.089)">
          <path id="Forma_29" data-name="Forma 29" d="M207.847,365.12l3.583.048.333,0v-4.009a.355.355,0,0,0-.143-.252.367.367,0,0,0-.286-.065h-3.165a.376.376,0,0,0-.322.317Z" transform="translate(-207.847 -360.841)" fill="#bebebe" fill-rule="evenodd"/>
          <path id="Forma_30" data-name="Forma 30" d="M296.6,403.785V405.4a.206.206,0,0,1-.411,0v-1.618a.213.213,0,1,1,.411,0Z" transform="translate(-293.084 -402.042)" fill="#fff" fill-rule="evenodd"/>
        </g>
      </g>
      <g id="_" data-name="$" transform="translate(1353.873 -20414)" style="mix-blend-mode: normal;isolation: isolate">
        <circle id="Ellipse_353" data-name="Ellipse 353" cx="6" cy="6" r="6" transform="translate(0)" fill="#f24e3e"/>
        <path id="_2" data-name="$" d="M2.108,9.171,2.087,8.055a3.379,3.379,0,0,1-.74-.2,2.285,2.285,0,0,1-.986-.7A1.688,1.688,0,0,1,0,6.125l.936-.015a1.122,1.122,0,0,0,.491.943,1.722,1.722,0,0,0,.647.273L2.028,4.918A3.81,3.81,0,0,1,.734,4.282,1.487,1.487,0,0,1,.167,3.127,1.567,1.567,0,0,1,.81,1.819a2.479,2.479,0,0,1,1.151-.491L1.946.491A.5.5,0,0,1,2.451,0a.5.5,0,0,1,.522.473l.015.824a2.864,2.864,0,0,1,.849.222,2.1,2.1,0,0,1,.9.715,1.789,1.789,0,0,1,.332,1.011l-.936.015A1.182,1.182,0,0,0,3.7,2.319a1.45,1.45,0,0,0-.7-.3l.043,2.325A5.285,5.285,0,0,1,4.13,4.76a2.04,2.04,0,0,1,.749.642,1.6,1.6,0,0,1,.257.876,1.516,1.516,0,0,1-.645,1.3,2.712,2.712,0,0,1-1.376.491l.02,1.082a.5.5,0,0,1-.5.491H2.619A.5.5,0,0,1,2.108,9.171ZM3.1,7.349a1.577,1.577,0,0,0,.721-.27A.9.9,0,0,0,4.2,6.3a.883.883,0,0,0-.378-.748,2.959,2.959,0,0,0-.762-.342ZM1.479,2.3a.93.93,0,0,0-.371.8.842.842,0,0,0,.379.681,2.246,2.246,0,0,0,.525.271L1.975,2.064A1.37,1.37,0,0,0,1.479,2.3Z" transform="translate(3.785 1.209)" fill="#fff"/>
      </g>
    </g>
  </g>
</svg>
