<svg id="Data_Ativo" xmlns="http://www.w3.org/2000/svg" width="24" height="24" viewBox="0 0 24 24">
  <g id="icon_safe_area" data-name="icon+safe area">
    <path id="Icon_awesome-calendar-alt" data-name="Icon awesome-calendar-alt" d="M0,16.313A1.7,1.7,0,0,0,1.714,18H14.286A1.7,1.7,0,0,0,16,16.313V6.75H0ZM11.429,9.422A.427.427,0,0,1,11.857,9h1.429a.427.427,0,0,1,.429.422v1.406a.427.427,0,0,1-.429.422H11.857a.427.427,0,0,1-.429-.422Zm0,4.5a.427.427,0,0,1,.429-.422h1.429a.427.427,0,0,1,.429.422v1.406a.427.427,0,0,1-.429.422H11.857a.427.427,0,0,1-.429-.422Zm-4.571-4.5A.427.427,0,0,1,7.286,9H8.714a.427.427,0,0,1,.429.422v1.406a.427.427,0,0,1-.429.422H7.286a.427.427,0,0,1-.429-.422Zm0,4.5a.427.427,0,0,1,.429-.422H8.714a.427.427,0,0,1,.429.422v1.406a.427.427,0,0,1-.429.422H7.286a.427.427,0,0,1-.429-.422Zm-4.571-4.5A.427.427,0,0,1,2.714,9H4.143a.427.427,0,0,1,.429.422v1.406a.427.427,0,0,1-.429.422H2.714a.427.427,0,0,1-.429-.422Zm0,4.5a.427.427,0,0,1,.429-.422H4.143a.427.427,0,0,1,.429.422v1.406a.427.427,0,0,1-.429.422H2.714a.427.427,0,0,1-.429-.422Zm12-11.672H12.571V.563A.569.569,0,0,0,12,0H10.857a.569.569,0,0,0-.571.563V2.25H5.714V.563A.569.569,0,0,0,5.143,0H4a.569.569,0,0,0-.571.563V2.25H1.714A1.7,1.7,0,0,0,0,3.938V5.625H16V3.938A1.7,1.7,0,0,0,14.286,2.25Z" transform="translate(4 3)" fill="#bebebe"/>
    <rect id="Rectangle_2627" data-name="Rectangle 2627" width="24" height="24" fill="none"/>
  </g>
</svg>
