<svg id="Avatar_Cami_-_Questionavel" data-name="Avatar_Cami - Questionavel" xmlns="http://www.w3.org/2000/svg" xmlns:xlink="http://www.w3.org/1999/xlink" width="104" height="104" viewBox="0 0 104 104">
  <defs>
    <clipPath id="clip-path">
      <circle id="Ellipse_358" data-name="Ellipse 358" cx="52" cy="52" r="52" fill="#feebeb"/>
    </clipPath>
    <radialGradient id="radial-gradient" cx="0.579" cy="0.769" r="0.244" gradientUnits="objectBoundingBox">
      <stop offset="0"/>
      <stop offset="1" stop-color="#ed7e49" stop-opacity="0"/>
    </radialGradient>
    <filter id="Path_907" x="54.354" y="78.245" width="16.008" height="34.889" filterUnits="userSpaceOnUse">
      <feOffset input="SourceAlpha"/>
      <feGaussianBlur stdDeviation="1" result="blur"/>
      <feFlood flood-opacity="0.239"/>
      <feComposite operator="in" in2="blur"/>
      <feComposite in="SourceGraphic"/>
    </filter>
    <filter id="Shape_112_copy" x="42.572" y="78.985" width="16.962" height="34.148" filterUnits="userSpaceOnUse">
      <feOffset input="SourceAlpha"/>
      <feGaussianBlur stdDeviation="1" result="blur-2"/>
      <feFlood flood-opacity="0.239"/>
      <feComposite operator="in" in2="blur-2"/>
      <feComposite in="SourceGraphic"/>
    </filter>
    <filter id="Path_908" x="50.153" y="105.269" width="13.464" height="16.237" filterUnits="userSpaceOnUse">
      <feOffset input="SourceAlpha"/>
      <feGaussianBlur stdDeviation="1" result="blur-3"/>
      <feFlood flood-opacity="0.239"/>
      <feComposite operator="in" in2="blur-3"/>
      <feComposite in="SourceGraphic"/>
    </filter>
    <filter id="Shape_113_copy" x="50.868" y="106.249" width="12.155" height="14.443" filterUnits="userSpaceOnUse">
      <feOffset input="SourceAlpha"/>
      <feGaussianBlur stdDeviation="1" result="blur-4"/>
      <feFlood flood-opacity="0.239"/>
      <feComposite operator="in" in2="blur-4"/>
      <feComposite in="SourceGraphic"/>
    </filter>
    <filter id="Path_909" x="52.066" y="107.179" width="9.976" height="8.826" filterUnits="userSpaceOnUse">
      <feOffset input="SourceAlpha"/>
      <feGaussianBlur stdDeviation="1" result="blur-5"/>
      <feFlood flood-opacity="0.239"/>
      <feComposite operator="in" in2="blur-5"/>
      <feComposite in="SourceGraphic"/>
    </filter>
    <filter id="Oculos_E_copy" x="37.337" y="43.38" width="21.248" height="21.499" filterUnits="userSpaceOnUse">
      <feOffset dx="1" input="SourceAlpha"/>
      <feGaussianBlur stdDeviation="0.5" result="blur-6"/>
      <feFlood flood-opacity="0.161"/>
      <feComposite operator="in" in2="blur-6"/>
      <feComposite in="SourceGraphic"/>
    </filter>
    <filter id="Oculos_E_copy_2" x="56.025" y="44.612" width="21.248" height="21.499" filterUnits="userSpaceOnUse">
      <feOffset dx="-1" input="SourceAlpha"/>
      <feGaussianBlur stdDeviation="0.5" result="blur-7"/>
      <feFlood flood-opacity="0.161"/>
      <feComposite operator="in" in2="blur-7"/>
      <feComposite in="SourceGraphic"/>
    </filter>
    <filter id="Path_917" x="49.211" y="50.518" width="15.95" height="14.455" filterUnits="userSpaceOnUse">
      <feOffset dy="2" input="SourceAlpha"/>
      <feGaussianBlur stdDeviation="2" result="blur-8"/>
      <feFlood flood-opacity="0.161"/>
      <feComposite operator="in" in2="blur-8"/>
      <feComposite in="SourceGraphic"/>
    </filter>
    <filter id="Path_918" x="34.766" y="63.302" width="34.26" height="62.668" filterUnits="userSpaceOnUse">
      <feOffset dx="1" input="SourceAlpha"/>
      <feGaussianBlur stdDeviation="1" result="blur-9"/>
      <feFlood flood-opacity="0.42"/>
      <feComposite operator="in" in2="blur-9"/>
      <feComposite in="SourceGraphic"/>
    </filter>
  </defs>
  <g id="Cami_fundo_circular" data-name="Cami+fundo circular">
    <circle id="Ellipse_357" data-name="Ellipse 357" cx="52" cy="52" r="52" fill="#feebeb"/>
    <g id="Mask_Group_3680" data-name="Mask Group 3680" clip-path="url(#clip-path)">
      <g id="Cami_questionavel_-_olho_escuro_v2" data-name="Cami questionavel - olho escuro v2" transform="translate(9.286 2.504)">
        <g id="cabelo" transform="translate(8.78 15.991)">
          <path id="Path_890" data-name="Path 890" d="M252.166,113.108c-2.311-4.5-5.45-7.451-6.834-8.026-8.343-3.466-21.029,5.627-26.812,15.564a27.1,27.1,0,0,0-4.008,12.592c-.037,2.521-.536,9.426,5.626,23.583,1,2.225-.458,5.271-2.638,6.669a6.626,6.626,0,0,1-8.02-.81,13.2,13.2,0,0,0,3.66,9.439c2.529,2.495,6.218,3.663,10.319,3.71,8.7.1,16.5-6.588,21.112-14.94l10.774-33.856A29.257,29.257,0,0,0,252.166,113.108Z" transform="translate(-209.48 -104.331)" fill="#eb5b1a" fill-rule="evenodd"/>
          <path id="Path_891" data-name="Path 891" d="M251.68,119.118a23.5,23.5,0,0,0-4.192-4.727c-7.813-2.344-25.6,16.74-22.8,32.082,1.383,7.59,9.26,11.567,8.823,19.686-.315,5.845-4.747,13.391-11.193,13.678-4.291.191-8.919-2.88-11.588-8.309a11.716,11.716,0,0,0,1.185,5.88,13.48,13.48,0,0,0,8.691,6.647c7.744,1.972,15.6-1.746,21.31-7.381,2.58-2.545,4.915-7.076,6.211-8.854C262.644,147.913,251.68,119.118,251.68,119.118Z" transform="translate(-210.55 -112.976)" fill="#eb5b1a" fill-rule="evenodd" opacity="0.64" style="mix-blend-mode: multiply;isolation: isolate"/>
          <path id="Path_892" data-name="Path 892" d="M273.346,104.578a43.059,43.059,0,0,0-15.76,15.226,43.554,43.554,0,0,0-4.082,34.258c-3.648-9.608-7.09-21.516-1.163-31.872C256.586,113.79,265.516,106.114,273.346,104.578Z" transform="translate(-244.12 -104.331)" fill="#f97b43" fill-rule="evenodd" opacity="0.4" style="mix-blend-mode: screen;isolation: isolate"/>
          <path id="Path_893" data-name="Path 893" d="M247.186,512.76c3.812-.3,6.729-1.419,8.427-3.579,2.468-3.139,1.112-8.264,2.634-8.82,1.012-.37,1.336.169,4.346,3.579s-2.957,11-7.374,11.76A9.523,9.523,0,0,1,247.186,512.76Z" transform="translate(-242.4 -451.72)" fill="#f97b43" fill-rule="evenodd" opacity="0.4" style="mix-blend-mode: screen;isolation: isolate"/>
          <path id="Path_895" data-name="Path 895" d="M349.59,356.49a16.361,16.361,0,0,0-1.58,7.286c.224,8.385,8.042,12.374,7.638,19.3-.294,5.031-2.7,8.978-9.895,12.99a13.333,13.333,0,0,0,1.844-.256c1.615-.341,1.075-.427,2.916-1.613,2.007-1.293,5.3-2.548,7.729-4.892,1.48-1.425,2.249-3.738,3.332-5.462a29.236,29.236,0,0,0,4.214-19.047Z" transform="translate(-328.399 -325.602)" fill="#eb5b1a" fill-rule="evenodd" opacity="0.72" style="mix-blend-mode: multiply;isolation: isolate"/>
        </g>
        <g id="pescoço" transform="translate(41.562 65.184)">
          <path id="pesoço" d="M501.359,538.154q.132,3.9.263,7.8a37.582,37.582,0,0,0,5.136,2.429c3.962,1.515,6.432,2.079,9.095,4.68a11.333,11.333,0,0,1,3.1,5.094c.344,5.232-.969,10.268-2.448,15.153a82.22,82.22,0,0,1-9.349,20.324c-2.941-.042-5.937.043-8.878,0l8.747-24.415c1.79-3.67,2.532-6.7,1.185-8.181-2.363-2.592-9.422,1.725-14.353-1.15-1.813-1.057-4.31-4.5-5.267-10.482-1.071-6.7.491-10.537,2.239-11.76C493.379,535.854,497.435,536.026,501.359,538.154Z" transform="translate(-488.026 -532.719)" fill="#f8b589" fill-rule="evenodd"/>
          <path id="sombra_cabeça" data-name="sombra cabeça" d="M495.439,508.809q-.063,2.045-.126,4.091a7.829,7.829,0,0,1-7.7,2.406c-4.627-1.322-6.632-7.442-5.176-9.331C483.805,504.2,488.9,505.292,495.439,508.809Z" transform="translate(-481.97 -505.137)" fill-rule="evenodd" opacity="0.32" fill="url(#radial-gradient)" style="mix-blend-mode: multiply;isolation: isolate"/>
        </g>
        <g id="Camiseta" transform="translate(23.438 79.439)">
          <path id="Path_901" data-name="Path 901" d="M333.36,647.458c1.707-.715,1.386-1.477,3.033-2.315,1.44-.732,2.826-1.5,4.214-2.318.088,8.713.17,17.555.258,26.269l34.534.013c.056-3,.173-9.787.3-12.93,1.225-3.481-8.385-3.1-7.152-6.569-.434-.686-1.422-1.4-1.209-1.889.292-.674,1.948-1.1,4.872-1.03a13.8,13.8,0,0,1,6.847,1.674,9.138,9.138,0,0,1,1.844,1.674c.195-1.165.368-2.306.527-3.477.46-3.385.765-6.756.922-10.173a11.634,11.634,0,0,0-1.317-6.052c-.729-1.356-4.027-4.576-9.086-6.567a32.483,32.483,0,0,0-5.794-1.674,11.968,11.968,0,0,1-2.9,3.219,10.067,10.067,0,0,1-5,2.189,11.8,11.8,0,0,1-6.057-1.932,14.951,14.951,0,0,1-3.555-3.09c-4.264.5-6.034,1.724-9.873,3.605a20.285,20.285,0,0,0-4.609,7.726,28.378,28.378,0,0,0-.922,7.469,36.319,36.319,0,0,0,.126,6.184Z" transform="translate(-333.164 -622.093)" fill="#f24e3e" fill-rule="evenodd"/>
          <g id="Estampa_copy_2" data-name="Estampa copy 2" transform="translate(14.167 14.785)">
            <path id="P" d="M562.08,771.953l.4-2.874a2.42,2.42,0,0,1,1.977-1.9,2.3,2.3,0,0,1,2.584,2.107,1.954,1.954,0,0,1-1.363,1.587,2.175,2.175,0,0,1-1.817-.213l-.171,1.612a.874.874,0,0,1-.663.466A.938.938,0,0,1,562.08,771.953Zm1.943-3.409a1.284,1.284,0,0,1,1.817.213.745.745,0,0,1,.119.7,1.317,1.317,0,0,1-1.914.09A.862.862,0,0,1,564.023,768.544Z" transform="translate(-549.249 -764.073)" fill="#fff" fill-rule="evenodd"/>
            <path id="I" d="M526.371,770.142l.331,3.26a.986.986,0,0,0,1.058.983.963.963,0,0,0,.808-.922l-.175-3.213a.975.975,0,0,0-.423-.956,1.043,1.043,0,0,0-1.07-.057A.982.982,0,0,0,526.371,770.142Z" transform="translate(-518.071 -765.786)" fill="#fff" fill-rule="evenodd"/>
            <path id="C" d="M467.767,771.325a1.456,1.456,0,0,0-1.445.231,1.314,1.314,0,0,0-.436,1.366,1.139,1.139,0,0,0,.48.643,1.768,1.768,0,0,0,2.059-.546c.314-.072.676-.1.83.083.216.25.028.9-.689,1.623-1.727.921-3.419.747-4.249-.112a2.362,2.362,0,0,1-.6-1.345,2.721,2.721,0,0,1,.977-2.532,2.915,2.915,0,0,1,2.735-.511.654.654,0,0,1,.517.449A.628.628,0,0,1,467.767,771.325Z" transform="translate(-463.343 -766.637)" fill="#fff" fill-rule="evenodd"/>
            <path id="Logo_inferior_" data-name="Logo inferior " d="M483.262,814.554a8.7,8.7,0,0,1-.655,3.13,25.54,25.54,0,0,1-16.461-2.118c-.217-.092-.279-.3-.216-.4a.312.312,0,0,1,.361-.058,27.423,27.423,0,0,0,4.681.907A28.458,28.458,0,0,0,483.262,814.554Z" transform="translate(-465.281 -805.626)" fill="#fff" fill-rule="evenodd"/>
            <path id="Logo_Superior" data-name="Logo Superior" d="M460.982,743.456l.875,2.093a24.607,24.607,0,0,1,11.978-1.558,23.147,23.147,0,0,1,3.537.73.167.167,0,0,0,.163-.033.156.156,0,0,0,.049-.154.161.161,0,0,0-.115-.116,19.257,19.257,0,0,0-5.377-1.948A20.123,20.123,0,0,0,460.982,743.456Z" transform="translate(-460.982 -742.093)" fill="#fff" fill-rule="evenodd"/>
            <path id="Path_906" data-name="Path 906" d="M591.127,815.369q-.064,1.479-.127,2.957l1.016-.123a12.364,12.364,0,0,0,.508-3.2Z" transform="translate(-574.498 -806.018)" fill="#2e2d36" fill-rule="evenodd" opacity="0.11"/>
          </g>
          <path id="Path_902" data-name="Path 902" d="M487.889,666.564a6.985,6.985,0,0,0,3.819,2.94c2.961.864,6.651-.495,8.954-3.835a13.041,13.041,0,0,1-8.032,2.173A12.639,12.639,0,0,1,487.889,666.564Z" transform="translate(-470.307 -660.3)" fill="#d92a19" fill-rule="evenodd" opacity="0.56" style="mix-blend-mode: multiply;isolation: isolate"/>
          <path id="Path_896" data-name="Path 896" d="M336.215,796.433a26.767,26.767,0,0,0,2.7,1.379c4.81,1.766,8.745,2.486,14.081,1.3-1.23-3-2.5-5.908-5.786-6.672A10.63,10.63,0,0,0,336.215,796.433Z" transform="translate(-335.9 -771.169)" fill="#631205" fill-rule="evenodd"/>
          <path id="Path_897" data-name="Path 897" d="M605.371,805.5c.747,2.218,6.331,2.953,8.082,2.9a14.152,14.152,0,0,0,5.315-1.332,8.582,8.582,0,0,0-1.114-1.79c-3.326-4.1-9.95-4.965-12-2.247A2.564,2.564,0,0,0,605.371,805.5Z" transform="translate(-571.097 -779.375)" fill="#631205" fill-rule="evenodd"/>
        </g>
        <g id="Braço_esquerdo_sombras" data-name="Braço esquerdo +sombras" transform="translate(23.627 86.751)">
          <path id="braço_de_traz" data-name="braço de traz" d="M353.5,771.33a83.912,83.912,0,0,1-2.944-15.518c1.617-1.874,8.028-3.65,10.912-1.718,6.124,4.1,3.158,14.393-3.3,16.429C356.716,770.982,355.4,772.362,353.5,771.33Z" transform="translate(-348.481 -739.911)" fill="#f8b589" fill-rule="evenodd"/>
          <path id="sombra_manga_esq" data-name="sombra manga esq" d="M335.877,698.814c.61-.649.909-.947,2.021-2.063s5.223-2.727,10.179-3.716c2.94-3.965,3-11.529,1.58-12.144C347.653,680.022,334.22,691.539,335.877,698.814Z" transform="translate(-335.736 -680.845)" fill="#d92a19" fill-rule="evenodd" opacity="0.56" style="mix-blend-mode: multiply;isolation: isolate"/>
          <path id="Sombra_corpo_esquerdo" data-name="Sombra corpo esquerdo" d="M415.446,872.708a62.049,62.049,0,0,1-2.233,7.778,44.759,44.759,0,0,0-.449,5.635l-5.081.344q-.066-8.053-.132-16.106C409,872.506,414,870.561,415.446,872.708Z" transform="translate(-400.117 -846.762)" fill="rgba(242,78,62,0.64)" fill-rule="evenodd" style="mix-blend-mode: multiply;isolation: isolate"/>
        </g>
        <g id="Braço_direito_sombras" data-name="Braço direito+ sombras" transform="translate(51.801 90.573)">
          <path id="Sombra_blusa" data-name="Sombra blusa" d="M411.982,876.531l-.176,9.977h-5.213c-.044-5.369.951-11.081.908-16.45C408.949,872.206,410.533,874.384,411.982,876.531Z" transform="translate(-397.914 -850.628)" fill="#f24e3e" fill-rule="evenodd" opacity="0.64" style="mix-blend-mode: multiply;isolation: isolate"/>
          <path id="Sombra_direito" data-name="Sombra direito" d="M583.429,729.742c-.721-1.91-.582-6.283,2.634-11.632a25.688,25.688,0,0,1,4.741-5.752c-2.012,4.2-4.549,10.106-5,12.655a3.653,3.653,0,0,0,.4,2.812,2.748,2.748,0,0,0,.931.784c-.527,1.449-6.33,17.835-6.857,19.284-.219-.214,4.878-15.383,4.623-15.686A8.764,8.764,0,0,1,583.429,729.742Z" transform="translate(-579.968 -712.357)" fill="#d92a19" fill-rule="evenodd" opacity="0.56"/>
          <path id="Braço_direito" d="M536.644,637.035a91.744,91.744,0,0,1-9.592,21.606c-2.941-.042-5.937.043-8.878,0l8.927-24.884A12.946,12.946,0,0,1,536.644,637.035Z" transform="translate(-518.173 -622.761)" fill="#f8b589" fill-rule="evenodd"/>
        </g>
        <g id="Crachá" transform="translate(36.286 78.741)">
          <g transform="matrix(1, 0, 0, 1, -45.57, -81.24)" filter="url(#Path_907)">
            <path id="Path_907-2" data-name="Path 907" d="M542.346,615.868c-1.138,3.8-2.224,7.555-3.292,11.377-1.578,5.645-3.05,11.191-4.477,16.874l.79.639a174.176,174.176,0,0,0,6.321-17.257c1.085-3.531,2.038-7.019,2.9-10.61a2.961,2.961,0,0,0-.79-.639A3.082,3.082,0,0,0,542.346,615.868Z" transform="translate(-477.22 -534.62)" fill="#2e2d36" fill-rule="evenodd"/>
          </g>
          <g transform="matrix(1, 0, 0, 1, -45.57, -81.24)" filter="url(#Shape_112_copy)">
            <path id="Shape_112_copy-2" data-name="Shape 112 copy" d="M441.118,621.911c1.239,3.542,2.373,7.02,3.457,10.61,1.695,5.611,3.168,11.164,4.477,16.874l-.79.639c-2.026-5.832-4.1-11.493-6.321-17.257-1.26-3.268-2.529-6.471-3.852-9.715A3.462,3.462,0,0,1,441.118,621.911Z" transform="translate(-392.52 -539.9)" fill="#2e2d36" fill-rule="evenodd"/>
          </g>
          <g transform="matrix(1, 0, 0, 1, -45.57, -81.24)" filter="url(#Path_908)">
            <path id="Path_908-2" data-name="Path 908" d="M500.007,836.156a15.8,15.8,0,0,1,6.979,0c.076,1.115.12,2.207.132,3.323a57.366,57.366,0,0,1-.263,6.136,19.147,19.147,0,0,1-6.979.128,41.2,41.2,0,0,1-.132-6.9C499.8,837.937,499.889,837.054,500.007,836.156Z" transform="translate(-446.5 -727.5)" fill="#bebebe" fill-rule="evenodd"/>
          </g>
          <g transform="matrix(1, 0, 0, 1, -45.57, -81.24)" filter="url(#Shape_113_copy)">
            <path id="Shape_113_copy-2" data-name="Shape 113 copy" d="M505.572,844.039a13.03,13.03,0,0,1,5.756,0c.063.919.1,1.82.109,2.741a47.331,47.331,0,0,1-.217,5.06,15.787,15.787,0,0,1-5.755.105,33.983,33.983,0,0,1-.109-5.692C505.4,845.508,505.475,844.78,505.572,844.039Z" transform="translate(-451.42 -734.47)" fill="#fff" fill-rule="evenodd"/>
          </g>
          <g transform="matrix(1, 0, 0, 1, -45.57, -81.24)" filter="url(#Path_909)">
            <path id="Path_909-2" data-name="Path 909" d="M514.994,851.539a5.568,5.568,0,0,1,3.424,0,2.868,2.868,0,0,1,0,2.429,10.659,10.659,0,0,1-3.292,0A2.312,2.312,0,0,1,514.994,851.539Z" transform="translate(-459.65 -741.09)" fill="#f24e3e" fill-rule="evenodd"/>
          </g>
        </g>
        <g id="Cabeça" transform="translate(24.922 26.744)">
          <path id="orelha_esquerda" data-name="orelha esquerda" d="M359.313,364.5c-1.691-1.119-4.2-2.054-5.919-1.087-2.508,1.408-2.187,6.266-.16,9.162A8.4,8.4,0,0,0,358.993,376a8.3,8.3,0,0,0,2.08,0Z" transform="translate(-351.614 -342.001)" fill="#f8b589" fill-rule="evenodd"/>
          <path id="Orelha_direita" data-name="Orelha direita" d="M644.38,389.584c1.392-.921,3.455-1.691,4.872-.895,2.064,1.16,1.8,5.158.132,7.542a6.916,6.916,0,0,1-4.741,2.812,6.845,6.845,0,0,1-1.712,0Z" transform="translate(-605.958 -364.221)" fill="#f1804a" fill-rule="evenodd"/>
          <path id="rosto" d="M393.974,202.448a20.964,20.964,0,0,0-3.688,9.365,22.48,22.48,0,0,0,0,4.731c.495,4.867-.327,8.735,1.242,12.053a18.237,18.237,0,0,0,32.1,1.361,72.838,72.838,0,0,0,1.934-7.877,44.424,44.424,0,0,0,.927-9.566c-.377-4.291-2.761-17.69-13.539-19.8C406.435,191.447,398.7,194.988,393.974,202.448Z" transform="translate(-385.266 -192.465)" fill="#f8b589" fill-rule="evenodd"/>
          <path id="bochecha_E" data-name="bochecha E" d="M401.765,443.866c-.064-1.117,1.99-2.289,3.819-2.3,1.68-.011,3.67.951,3.687,2.045s-1.989,2.118-3.687,2.173S401.826,444.952,401.765,443.866Z" transform="translate(-395.399 -410.874)" fill="#f1804a" fill-rule="evenodd"/>
          <path id="Bochecha_D" data-name="Bochecha D" d="M594.138,449.606c.079-1.115,2.264-2.034,4.081-1.828,1.669.189,3.521,1.382,3.4,2.469s-2.242,1.865-3.935,1.717S594.061,450.691,594.138,449.606Z" transform="translate(-563.354 -416.296)" fill="#f1804a" fill-rule="evenodd"/>
          <path id="nariz" d="M510.617,444.619c-1.609-.063-3.062-1.629-2.777-2.583.278-.929,2.176-1.176,3.444-1,.483.068,2.116.367,2.31,1.227C513.81,443.222,512.231,444.682,510.617,444.619Z" transform="translate(-487.98 -410.365)" fill="#f1804a" fill-rule="evenodd"/>
          <g id="Sombrancelha" transform="translate(8.947 11.299)">
            <path id="Path_912" data-name="Path 912" d="M422.16,294.971c-.426.466,1.744,3.967,5.4,5.113a8.827,8.827,0,0,0,4.082.256c1.173.136,2-.641,1.975-1.278a1.465,1.465,0,0,0-1.185-1.15,20.591,20.591,0,0,1-5.267-.895C424.766,296.275,422.46,294.644,422.16,294.971Z" transform="translate(-422.107 -293.604)" fill="#eb5b1a" fill-rule="evenodd"/>
            <path id="Path_913" data-name="Path 913" d="M559.089,286.694a1.636,1.636,0,0,1,.395-2.429,1.66,1.66,0,0,1,1.844.639,15.766,15.766,0,0,0,2.9,2.94c2.6,2.022,5.741,2.616,5.662,3.068-.094.542-4.055,1-7.374-.895A9.79,9.79,0,0,1,559.089,286.694Z" transform="translate(-541.39 -284.176)" fill="#eb5b1a" fill-rule="evenodd"/>
          </g>
          <g id="Boca" transform="translate(15.821 35.852)">
            <path id="Path_914" data-name="Path 914" d="M477.268,504.785a.575.575,0,0,0-.589-.183.555.555,0,0,0-.409.45.543.543,0,0,0,.261.544.581.581,0,0,0,.711-.113A.539.539,0,0,0,477.268,504.785Z" transform="translate(-476.265 -501.979)" fill="#f1804a" fill-rule="evenodd"/>
            <path id="Shape_85_copy" data-name="Shape 85 copy" d="M582.727,514.438a.575.575,0,0,0-.589-.183.554.554,0,0,0-.409.451.543.543,0,0,0,.262.544.58.58,0,0,0,.71-.113A.539.539,0,0,0,582.727,514.438Z" transform="translate(-568.339 -510.443)" fill="#f1804a" fill-rule="evenodd"/>
            <path id="Path_915" data-name="Path 915" d="M480.675,494.282a5.972,5.972,0,0,1,1.466-1.346,8.244,8.244,0,0,1,5.591-.82,11.457,11.457,0,0,1,6.333,3.218,23.7,23.7,0,0,0-4.533-1.23A24.177,24.177,0,0,0,480.675,494.282Z" transform="translate(-480.115 -490.934)" fill="#d92a19" fill-rule="evenodd"/>
            <path id="Path_916" data-name="Path 916" d="M478.427,486.794a11.7,11.7,0,0,1,8.325-1.579,11.316,11.316,0,0,1,5.35,2.638c-2.473-3.581-6.415-5.045-9.59-4.137A7.5,7.5,0,0,0,478.427,486.794Z" transform="translate(-478.153 -483.453)" fill="#f24e3e" fill-rule="evenodd"/>
          </g>
          <g id="Olho_E_" data-name="Olho E " transform="translate(4.921 19.342)">
            <path id="Fundo_olho" data-name="Fundo olho" d="M418.374,361.957a4.892,4.892,0,0,0,2.645,3.672,9.7,9.7,0,0,0,3.431.439,5.406,5.406,0,0,0,1.756-.263c1.81-.909,2.234-3.83,1.7-5.934-.34-1.332-1.465-3.8-3.653-4.178C421.349,355.2,417.958,358.743,418.374,361.957Z" transform="translate(-414.792 -354.882)" fill="#fff" fill-rule="evenodd"/>
            <g id="Group_29" data-name="Group 29" transform="translate(3.643 1.799)">
              <path id="Olho_E" data-name="Olho E" d="M419.109,368.183a3.517,3.517,0,1,1,6.941-.089,3.679,3.679,0,0,1-2.894,3.447A3.776,3.776,0,0,1,419.109,368.183Z" transform="translate(-419.092 -364.056)" fill="#2e2d36" fill-rule="evenodd"/>
              <path id="Pupila_E" data-name="Pupila E" d="M428.539,375.141a2.231,2.231,0,1,1,4.4.272,2.208,2.208,0,1,1-4.4-.272Z" transform="translate(-427.34 -371.627)" fill="#1f1f1f" fill-rule="evenodd"/>
              <path id="Brilho_E" data-name="Brilho E" d="M462.584,391.713a2.1,2.1,0,0,0-1.21-.378,2.057,2.057,0,0,0-.771.158.764.764,0,0,0-.3.453.791.791,0,0,0,.287.762,1.585,1.585,0,0,0,1.872.085Z" transform="translate(-455.057 -387.975)" fill="#fff" fill-rule="evenodd"/>
            </g>
            <path id="Cilios_E" data-name="Cilios E" d="M403.645,355.612a5.45,5.45,0,0,0-1.068-2.538,5.069,5.069,0,0,0-4.253-2.128c-2.239.216-4.313,2.489-4.353,5.581a4.92,4.92,0,0,1-3.583-1.826,3.441,3.441,0,0,0,1.652-.046,3.347,3.347,0,0,0,.979-.456,2.312,2.312,0,0,1-1.7-1.558q0-.053,0-.107a2.8,2.8,0,0,0,1.432-.04,2.933,2.933,0,0,0,1.3-.893,7.8,7.8,0,0,1,1.938-1.552,4.975,4.975,0,0,1,2.187-.6,5.255,5.255,0,0,1,3.343,1.19A5.945,5.945,0,0,1,403.645,355.612Z" transform="translate(-390.388 -349.451)" fill="#292929" fill-rule="evenodd"/>
            <path id="Forma_11" data-name="Forma 11" d="M435,433.189c-.03.065.226.239.34.312a5,5,0,0,0,2.666.674c1.783-.049,3.144-.163,3.182-.518a.264.264,0,0,0-.116-.211,8.962,8.962,0,0,1-3.3.307C436.491,433.629,435.06,433.057,435,433.189Z" transform="translate(-429.335 -422.855)" fill-rule="evenodd"/>
          </g>
          <g id="Olho_D_" data-name="Olho D " transform="translate(27.734 20.256)">
            <path id="Fundo_olho-2" data-name="Fundo olho" d="M579.8,369.187a4.879,4.879,0,0,1-2.783,3.539,9.653,9.653,0,0,1-3.425.3,5.348,5.348,0,0,1-1.732-.333c-1.759-.975-2.054-3.893-1.432-5.96.395-1.309,1.617-3.718,3.805-4C577.138,362.354,580.354,366.013,579.8,369.187Z" transform="translate(-570.133 -361.984)" fill="#fff" fill-rule="evenodd"/>
            <g id="Group_30" data-name="Group 30" transform="translate(0.306 1.763)">
              <path id="Olho_E-2" data-name="Olho E" d="M572.542,374.953a3.464,3.464,0,1,1,6.82.471,3.647,3.647,0,0,1-3.134,3.15A3.7,3.7,0,0,1,572.542,374.953Z" transform="translate(-572.542 -371.176)" fill="#2e2d36" fill-rule="evenodd"/>
              <path id="Pupila_E-2" data-name="Pupila E" d="M582,383.676a2.361,2.361,0,0,1,2.547-2.114A2.352,2.352,0,1,1,582,383.676Z" transform="translate(-580.793 -380.256)" fill="#1f1f1f" fill-rule="evenodd"/>
              <path id="Brilho_E-2" data-name="Brilho E" d="M617.3,400.264a2.221,2.221,0,0,0-1.269-.444,2.184,2.184,0,0,0-.824.14.814.814,0,0,0-.34.47.837.837,0,0,0,.276.819,1.682,1.682,0,0,0,1.982.157Q617.217,400.836,617.3,400.264Z" transform="translate(-609.482 -396.291)" fill="#fff" fill-rule="evenodd"/>
            </g>
            <path id="Cilios_E-2" data-name="Cilios E" d="M570.948,362.776a5.433,5.433,0,0,1,1.169-2.478,5.051,5.051,0,0,1,4.314-1.942c2.214.3,4.176,2.645,4.085,5.717a4.9,4.9,0,0,0,3.635-1.669,3.417,3.417,0,0,1-1.639-.113,3.309,3.309,0,0,1-.952-.492,2.3,2.3,0,0,0,1.755-1.478q0-.053.008-.106a2.778,2.778,0,0,1-1.42-.1,2.908,2.908,0,0,1-1.249-.939,7.723,7.723,0,0,0-1.858-1.62,4.938,4.938,0,0,0-2.146-.68,5.237,5.237,0,0,0-3.37,1.047A5.928,5.928,0,0,0,570.948,362.776Z" transform="translate(-570.844 -356.869)" fill="#292929" fill-rule="evenodd"/>
            <path id="Forma_11-2" data-name="Forma 11" d="M586.543,440.764c.027.066-.235.228-.351.3a4.974,4.974,0,0,1-2.676.562c-1.768-.121-3.115-.288-3.137-.642a.263.263,0,0,1,.125-.2,8.9,8.9,0,0,0,3.262.437C585.043,441.14,586.487,440.63,586.543,440.764Z" transform="translate(-579.079 -430.408)" fill-rule="evenodd"/>
          </g>
          <g id="Oculos" transform="translate(3.629 15.633)">
            <g transform="matrix(1, 0, 0, 1, -37.84, -44.88)" filter="url(#Oculos_E_copy)">
              <path id="Oculos_E_copy-2" data-name="Oculos E copy" d="M398.423,329.476c.441-5.009-3.685-10.154-9.132-10.131a9.248,9.248,0,1,0,.87,18.468A9.285,9.285,0,0,0,398.423,329.476Zm-1.457.032a7.656,7.656,0,1,0-6.938,7A7.8,7.8,0,0,0,396.966,329.508Z" transform="translate(-342.37 -274.47)" fill="#262626" fill-rule="evenodd"/>
            </g>
            <g transform="matrix(1, 0, 0, 1, -37.84, -44.88)" filter="url(#Oculos_E_copy_2)">
              <path id="Oculos_E_copy_2-2" data-name="Oculos E copy 2" d="M561.423,339.476c.441-5.009-3.685-10.154-9.132-10.131a9.248,9.248,0,1,0,.87,18.467A9.285,9.285,0,0,0,561.423,339.476Zm-1.458.032a7.656,7.656,0,1,0-6.938,7A7.8,7.8,0,0,0,559.966,339.508Z" transform="translate(-484.68 -283.23)" fill="#262626" fill-rule="evenodd"/>
            </g>
            <g transform="matrix(1, 0, 0, 1, -37.84, -44.88)" filter="url(#Path_917)">
              <path id="Path_917-2" data-name="Path 917" d="M517.215,399.818a4.187,4.187,0,0,1,3.693.2,1.9,1.9,0,0,0-.105-1.639,2.368,2.368,0,0,0-3.482-.1A1.772,1.772,0,0,0,517.215,399.818Z" transform="translate(-461.88 -343.05)" fill="#262626" fill-rule="evenodd"/>
            </g>
          </g>
        </g>
        <g id="Franja" transform="translate(23.723 20.598)">
          <path id="Path_919" data-name="Path 919" d="M510.642,156.5c1.648-2.114,4.878-2.613,7.386-1.792,1.817.594,4.085,2.174,4.432,4.481.594,3.952-4.783,8.4-8.678,7.17C510.315,165.266,508.146,159.705,510.642,156.5Z" transform="translate(-489.517 -152.784)" fill="#d54900" fill-rule="evenodd"/>
          <path id="Path_920" data-name="Path 920" d="M375.752,169.622a9.313,9.313,0,0,0-5.136-1.278c-2.884.163-5.464,1.916-7.506,4.346-1.615,1.922-2.524,4.294-3.819,6.264-1.4,2.132-2.434,3.207-3.424,3.2-2.005-.023-3.824-3.456-4.214-6.391-.332-2.5,1.1-6.311,4.477-11.121,2.7-3.855,4.408-6.268,7.243-7.542a14.963,14.963,0,0,1,9.481-.767Z" transform="translate(-351.608 -154.154)" fill="#eb5b1a" fill-rule="evenodd"/>
          <path id="Path_921" data-name="Path 921" d="M371.06,282.63c2.669-2.766,6.37-6.767,5.794-7.414-.3-.337-2.655,1.155-4.477,1.79-1.625.567-2.954.874-3.292,1.917C368.7,280.107,369.813,281.555,371.06,282.63Z" transform="translate(-366.8 -258.726)" fill="#f97b43" fill-rule="evenodd" opacity="0.4" style="mix-blend-mode: screen;isolation: isolate"/>
          <path id="Path_922" data-name="Path 922" d="M537.943,211.754a17.2,17.2,0,0,1,11.193,3.324c1.45,1.136,4.2,6.018,6.057,11.76a39.04,39.04,0,0,1,1.58,6.391,34.465,34.465,0,0,1,.263,7.8l8.559-6.008-10.139-31.062c-10.378-.086-17.464,1.873-18.172,5.113A3.615,3.615,0,0,0,537.943,211.754Z" transform="translate(-513.667 -196.287)" fill="#d54900" fill-rule="evenodd"/>
          <path id="Path_923" data-name="Path 923" d="M529.389,156.426l1.844.895a10.884,10.884,0,0,1,3.292-2.173,7.71,7.71,0,0,1,2.765-.639,5.5,5.5,0,0,1,3.424,1.15c2.035,1.765,1.736,7.365,1.975,8.309a27.987,27.987,0,0,0,3.819,6.647c3.949,5.42,7.935,7.875,7.374,11.249-.3,1.8-1.745,3.321-3.95,4.6a12.48,12.48,0,0,0,8.427-1.662,11.606,11.606,0,0,0,5.531-9.459c.114-3.838-2.012-6.507-3.687-8.948a50.5,50.5,0,0,1-5-9.2c-1.7-4.148-2.035-6.829-4.872-10.226-3.255-3.9-6.1-5.231-8.559-5.241C536.737,141.7,531.135,147.124,529.389,156.426Z" transform="translate(-506.825 -141.725)" fill="#eb5b1a" fill-rule="evenodd"/>
          <path id="Path_924" data-name="Path 924" d="M533.443,156.411c4.589-5.813,9.311-10.124,12.773-9.076,2.428.735,3.378,3.834,3.819,5.113,2.158,6.272,11.922,15.92,13.661,18.816s2.015,5.855.428,8.54a11.7,11.7,0,0,1-10.008,6.264,12.092,12.092,0,0,0,9.9-3.323,10.958,10.958,0,0,0,2.11-13.056c-2.966-4.783-5.673-8.213-7.85-13.967a55.017,55.017,0,0,0-2.169-5.736c-3.352-5.922-7.358-8.276-9.471-8.532-3.528-.427-5.741.76-8.5,3.411C535.183,148.423,533.268,152.089,533.443,156.411Z" transform="translate(-510.352 -141.327)" fill="#f97b43" fill-rule="evenodd" opacity="0.4" style="mix-blend-mode: screen;isolation: isolate"/>
        </g>
        <g id="_" data-name="?" transform="translate(42.718 6.224) rotate(-30)">
          <path id="Path_925" data-name="Path 925" d="M4.145,4.677A3.148,3.148,0,0,1,7.682,3.81,1.834,1.834,0,0,1,8.427,5.9c-.572,1.559-3.661,1.441-5.15,3.243-.361.437-1.245,1.677-.7,2.612a1.924,1.924,0,0,0,1.851.856c1.02-.181,1.387-1.69,2.174-2.359,1.5-1.278,2.952-.6,4.437-1.9a4.323,4.323,0,0,0,1.316-4.1c-.6-2.816-4.243-4.69-7.309-4.163C1.924.626-.59,3.652.121,5.292A2.14,2.14,0,0,0,2.159,6.45,2.359,2.359,0,0,0,4.145,4.677Z" fill="#f24e3e" fill-rule="evenodd"/>
          <path id="Path_926" data-name="Path 926" d="M2.434.04a2.06,2.06,0,0,0-2.4,1.287A1.816,1.816,0,0,0,1.382,3.322,2.181,2.181,0,0,0,3.89,2.571,1.868,1.868,0,0,0,2.434.04Z" transform="translate(0.856 13.044)" fill="#f24e3e" fill-rule="evenodd"/>
          <path id="Path_927" data-name="Path 927" d="M.586.069A.835.835,0,0,0,.079,1.208a1.013,1.013,0,0,0,1.271.454A.835.835,0,0,0,1.857.523,1.019,1.019,0,0,0,.586.069Z" transform="translate(2.404 13.953)" fill="#f9f7f7" fill-rule="evenodd" opacity="0.21" style="mix-blend-mode: screen;isolation: isolate"/>
          <path id="Path_928" data-name="Path 928" d="M.152,0A2.249,2.249,0,0,0,1.488,1.749a2.754,2.754,0,0,0,2.366-.036,2.331,2.331,0,0,1-1.086.736A2.363,2.363,0,0,1,1.085,2.4,1.906,1.906,0,0,1,.132,1.39,1.772,1.772,0,0,1,.152,0Z" transform="translate(0.854 14.019)" fill="#d92a19" fill-rule="evenodd"/>
          <path id="Path_929" data-name="Path 929" d="M3.544.425A3.679,3.679,0,0,1,3.221,3.64C2.295,4.923-.019,5.134,0,5.731c.011.343.735.568.934.621A3.9,3.9,0,0,0,4.7,4.781C6.06,2.955,5.292.166,4.386.008A1.047,1.047,0,0,0,3.544.425Z" transform="translate(6.422 2.45)" fill="#f9f7f7" fill-rule="evenodd" opacity="0.21" style="mix-blend-mode: screen;isolation: isolate"/>
          <path id="Path_930" data-name="Path 930" d="M1.383,3.641a2.587,2.587,0,0,0,2.246-.818c.416-.427.386-.764.806-1.188A2.663,2.663,0,0,1,7.2.951a1.833,1.833,0,0,1,.876,2.128C7.549,4.6,4.508,4.5,3.1,6.239a4.306,4.306,0,0,0-.92,2.428l.187.3A6.949,6.949,0,0,1,5.14,5.622c.667-.4,2.824-.845,3.445-1.905a2.584,2.584,0,0,0-.893-3.4A3.288,3.288,0,0,0,4.68.429c-1.2.657-1.276,1.977-2.473,2.409A3.105,3.105,0,0,1,0,2.651,2.142,2.142,0,0,0,1.383,3.641Z" transform="translate(0.216 2.792)" fill="#d92a19" fill-rule="evenodd"/>
        </g>
        <g id="_2" data-name="? " transform="translate(74.363 64.31)">
          <path id="Path_931" data-name="Path 931" d="M769.343,501.974a2.505,2.505,0,0,1,3.028-.287,1.677,1.677,0,0,1,.284,1.935c-.71,1.291-3.218.775-4.716,2.155-.363.335-1.279,1.3-.975,2.2a1.533,1.533,0,0,0,1.381,1c.862-.023,1.4-1.3,2.144-1.778,1.429-.919,2.508-.135,3.924-1.076a4.075,4.075,0,0,0,1.714-3.42c-.049-2.548-2.74-4.677-5.33-4.625-2.64.054-5.166,2.37-4.839,3.9a1.729,1.729,0,0,0,1.486,1.287A2.042,2.042,0,0,0,769.343,501.974Z" transform="translate(-765.062 -498.073)" fill="#f24e3e" fill-rule="evenodd"/>
          <path id="Path_932" data-name="Path 932" d="M760.371,603.858a1.714,1.714,0,0,0-2.16.808,1.593,1.593,0,0,0,.789,1.928,1.756,1.756,0,0,0,2.168-.323A1.657,1.657,0,0,0,760.371,603.858Z" transform="translate(-758.096 -592.701)" fill="#f24e3e" fill-rule="evenodd"/>
          <path id="Path_933" data-name="Path 933" d="M770.242,612.138a.769.769,0,0,0-.591.93.805.805,0,0,0,.969.568.77.77,0,0,0,.592-.93A.809.809,0,0,0,770.242,612.138Z" transform="translate(-768.358 -600.199)" fill="#f9f7f7" fill-rule="evenodd" opacity="0.21" style="mix-blend-mode: screen;isolation: isolate"/>
          <path id="Path_934" data-name="Path 934" d="M758.231,609.764a1.955,1.955,0,0,0,.82,1.712,2.141,2.141,0,0,0,1.941.284,1.968,1.968,0,0,1-1,.5,1.828,1.828,0,0,1-1.369-.271A1.622,1.622,0,0,1,758,610.98,1.688,1.688,0,0,1,758.231,609.764Z" transform="translate(-757.969 -598.093)" fill="#d92a19" fill-rule="evenodd"/>
          <path id="Path_935" data-name="Path 935" d="M813.084,525.359a3.5,3.5,0,0,1-.764,2.775c-.957,1-2.882.877-2.959,1.4-.044.3.513.6.668.669a3.181,3.181,0,0,0,3.322-.874c1.4-1.419,1.2-3.966.488-4.226C813.638,525.032,813.38,525.133,813.084,525.359Z" transform="translate(-803.762 -522.259)" fill="#f9f7f7" fill-rule="evenodd" opacity="0.21" style="mix-blend-mode: screen;isolation: isolate"/>
          <path id="Path_936" data-name="Path 936" d="M767.653,524.951a2.1,2.1,0,0,0,1.964-.417c.407-.319.434-.618.844-.934a2.122,2.122,0,0,1,2.372-.229,1.664,1.664,0,0,1,.386,1.982c-.671,1.262-3.144.771-4.565,2.1a4.054,4.054,0,0,0-1.13,2l.106.289a6.221,6.221,0,0,1,2.789-2.563c.608-.263,2.442-.363,3.114-1.21a2.383,2.383,0,0,0-.2-3.1,2.564,2.564,0,0,0-2.481-.3c-1.082.416-1.351,1.562-2.4,1.781a2.4,2.4,0,0,1-1.776-.458A1.753,1.753,0,0,0,767.653,524.951Z" transform="translate(-765.728 -519.85)" fill="#d92a19" fill-rule="evenodd"/>
        </g>
        <g id="_3" data-name="? " transform="translate(0 51.949)">
          <path id="Path_937" data-name="Path 937" d="M146.676,401.2c-1.159-.75-2.356-.666-2.886-.069a1.737,1.737,0,0,0-.126,1.944c.767,1.232,3.1.54,4.621,1.806.369.307,1.306,1.2,1.085,2.114a1.466,1.466,0,0,1-1.233,1.09c-.818.039-1.417-1.189-2.16-1.614-1.42-.812-2.384.045-3.792-.79a4.133,4.133,0,0,1-1.874-3.277,5.081,5.081,0,0,1,4.7-4.977c2.5-.135,5.063,1.987,4.867,3.534a1.672,1.672,0,0,1-1.311,1.385A1.933,1.933,0,0,1,146.676,401.2Z" transform="translate(-140.306 -397.425)" fill="#f24e3e" fill-rule="evenodd"/>
          <path id="Path_938" data-name="Path 938" d="M217.755,500.169a1.592,1.592,0,0,1,2.1.649,1.654,1.654,0,0,1-2.679,1.806A1.689,1.689,0,0,1,217.755,500.169Z" transform="translate(-208.952 -489.321)" fill="#f24e3e" fill-rule="evenodd"/>
          <path id="Path_939" data-name="Path 939" d="M221.962,508.68a.768.768,0,1,1-.875.633A.767.767,0,0,1,221.962,508.68Z" transform="translate(-212.73 -497.084)" fill="#f9f7f7" fill-rule="evenodd" opacity="0.21" style="mix-blend-mode: screen;isolation: isolate"/>
          <path id="Path_940" data-name="Path 940" d="M222.908,505.105a1.988,1.988,0,0,1-.65,1.76,1.952,1.952,0,0,1-1.815.421,1.832,1.832,0,0,0,.986.425,1.667,1.667,0,0,0,1.275-.367,1.633,1.633,0,0,0,.515-1.047A1.751,1.751,0,0,0,222.908,505.105Z" transform="translate(-212.163 -493.89)" fill="#d92a19" fill-rule="evenodd"/>
          <path id="Path_941" data-name="Path 941" d="M145.2,427.514a3.609,3.609,0,0,0,.928,2.7c.979.926,2.792.666,2.9,1.182.064.3-.441.628-.582.713a2.919,2.919,0,0,1-3.207-.631c-1.428-1.31-1.432-3.856-.773-4.166C144.65,427.229,144.9,427.311,145.2,427.514Z" transform="translate(-143.657 -424.172)" fill="#f9f7f7" fill-rule="evenodd" opacity="0.21" style="mix-blend-mode: screen;isolation: isolate"/>
          <path id="Path_942" data-name="Path 942" d="M171.841,424.186a1.92,1.92,0,0,1-1.889-.274c-.408-.288-.457-.583-.868-.868a1.934,1.934,0,0,0-2.261-.058,1.718,1.718,0,0,0-.219,2c.728,1.206,3.031.542,4.474,1.766a4.092,4.092,0,0,1,1.217,1.912l-.079.3a6.007,6.007,0,0,0-2.828-2.348c-.594-.218-2.337-.187-3.035-.98a2.466,2.466,0,0,1-.038-3.1,2.337,2.337,0,0,1,2.325-.478c1.055.336,1.394,1.456,2.4,1.6a2.2,2.2,0,0,0,1.647-.583A1.719,1.719,0,0,1,171.841,424.186Z" transform="translate(-163.153 -419.384)" fill="#d92a19" fill-rule="evenodd"/>
        </g>
        <g id="Braço_esquerdo" data-name="Braço esquerdo" transform="translate(27.48 63.799)">
          <g transform="matrix(1, 0, 0, 1, -36.77, -66.3)" filter="url(#Path_918)">
            <path id="Path_918-2" data-name="Path 918" d="M369.734,549.647a5.03,5.03,0,0,0,6.584,1.534,22.639,22.639,0,0,0,3.292-5.5c1.239-2.965,1.416-5.569,1.975-9.076.2-1.24.414-2.455.659-3.707l3.029-15.084a10.934,10.934,0,0,0,4.082-3.963,5.321,5.321,0,0,1,2.107-.767,10.348,10.348,0,0,0,2.9-.383c.43-.17.65-.331.659-.511.019-.389-.947-.723-1.449-.895-.915-.313-2.094-.748-3.16-1.15a6.487,6.487,0,0,1,2.634-1.662,6.824,6.824,0,0,0,2.5-.895c.916-.7,1.474-1.86,1.185-2.173-.25-.271-1.089.148-1.975.511-2.786,1.141-5.83,1.524-6.057,1.023-.122-.269.712-.838,1.975-1.917a12.357,12.357,0,0,0,3.687-5.369.566.566,0,0,0-.132-.511c-.222-.191-.674-.062-1.053.128-.733.711-1.469,1.384-2.238,2.045-1.782,1.532-3.234,2.689-3.555,2.429-.355-.288,1.661-3.621,2.37-5.369.292-.719.552-1.435.79-2.173-.013-.476-.116-.9-.4-1.023a1.471,1.471,0,0,0-1.58.895,46.3,46.3,0,0,1-4.477,6.647,25.71,25.71,0,0,0-3.292,4.857,20.924,20.924,0,0,0-1.975,6.647c-1.145,2.393-4.788,10.061-5.926,12.4a42.291,42.291,0,0,0-4.345,15.084A24.27,24.27,0,0,0,369.734,549.647Z" transform="translate(-331.78 -428.84)" fill="#f8b589" fill-rule="evenodd"/>
          </g>
        </g>
      </g>
    </g>
  </g>
</svg>
