<svg id="Icone_menu_change" xmlns="http://www.w3.org/2000/svg" width="24" height="24" viewBox="0 0 24 24">
  <g id="icon_safearea" data-name="icon+safearea">
    <rect id="Margem_de_segurança" data-name="Margem de segurança" width="24" height="24" fill="none"/>
    <g id="icones_setas" data-name="icones setas" transform="translate(-1338 20414.621)">
      <path id="Forma_672" data-name="Forma 672" d="M109.578,72.074v1.849a.318.318,0,0,0,.208.341.352.352,0,0,0,.313-.049l4.846-3.843A.547.547,0,0,0,115,70.08a.647.647,0,0,0-.365-.487l-4.481-3.5a.351.351,0,0,0-.261-.1.4.4,0,0,0-.313.438l-.052,1.7h-3.648A7.328,7.328,0,0,0,99,75.091a2.166,2.166,0,0,0,1.563,1.849,2.385,2.385,0,0,0,2.762-1.849,3.331,3.331,0,0,1,.782-1.751,3.834,3.834,0,0,1,2.449-1.265Z" transform="translate(1243 -20478.613)" fill="#f14e3d" fill-rule="evenodd"/>
      <path id="Forma_672_copiar_2" data-name="Forma 672 copiar 2" d="M105.4,244.822v-1.849a.318.318,0,0,0-.208-.341.352.352,0,0,0-.313.049l-4.846,3.843a.547.547,0,0,0-.052.292.647.647,0,0,0,.365.487l4.481,3.5a.351.351,0,0,0,.261.1.4.4,0,0,0,.313-.438l.052-1.7H109.1a7.328,7.328,0,0,0,6.878-6.957,2.166,2.166,0,0,0-1.563-1.849,2.385,2.385,0,0,0-2.762,1.849,3.331,3.331,0,0,1-.782,1.751,3.834,3.834,0,0,1-2.449,1.265Z" transform="translate(1242.02 -20643.525)" fill="#f14e3d" fill-rule="evenodd"/>
    </g>
  </g>
</svg>
