<svg id="Icone_comparar_documentos" data-name="Icone_comparar documentos" xmlns="http://www.w3.org/2000/svg" width="24" height="24" viewBox="0 0 24 24">
  <g id="icon_safety_area" data-name="icon+safety area">
    <rect id="Margem_de_segurança" data-name="Margem de segurança" width="24" height="24" fill="none"/>
    <path id="Icon_awesome-copy" data-name="Icon awesome-copy" d="M11.429,16v1.429a.857.857,0,0,1-.857.857H.857A.857.857,0,0,1,0,17.429V4.286a.857.857,0,0,1,.857-.857H3.429V14a2,2,0,0,0,2,2Zm0-12.286V0h-6a.857.857,0,0,0-.857.857V14a.857.857,0,0,0,.857.857h9.714A.857.857,0,0,0,16,14V4.571H12.286A.86.86,0,0,1,11.429,3.714Zm4.32-1.108L13.394.251A.857.857,0,0,0,12.788,0h-.216V3.429H16V3.212a.857.857,0,0,0-.251-.606Z" transform="translate(4 3)" fill="#69c"/>
  </g>
</svg>
