<svg id="icone_menu_dupla_aprovação" data-name="icone menu_dupla aprovação" xmlns="http://www.w3.org/2000/svg" width="24" height="24" viewBox="0 0 24 24">
  <g id="icon_safe_area" data-name="icon+safe area" transform="translate(-39 -77)">
    <rect id="Margem_de_segurança" data-name="Margem de segurança" width="24" height="24" transform="translate(39 77)" fill="none"/>
    <g id="icone_dupla_aprovação" data-name="icone_dupla aprovação" transform="translate(-64 8)">
      <g id="check_fundo" data-name="check+fundo" transform="translate(107 73)">
        <rect id="Rectangle_2661" data-name="Rectangle 2661" width="16" height="7.111" rx="3.556" fill="#bebebe"/>
        <path id="Forma_13" data-name="Forma 13" d="M265.789,51.62l.548.46.433.373.2-.287,1.673-2.623a.52.52,0,0,1,.577-.057.528.528,0,0,1,.173.7L267.4,53.258a.617.617,0,0,1-.923.144,13.416,13.416,0,0,1-1.3-1.063.48.48,0,0,1-.087-.632A.488.488,0,0,1,265.789,51.62Z" transform="translate(-255.237 -48.09)" fill="#f24e3e" fill-rule="evenodd"/>
      </g>
      <g id="check_fundo-2" data-name="check+fundo" transform="translate(107 81.889)">
        <rect id="Rectangle_2661-2" data-name="Rectangle 2661" width="16" height="7.111" rx="3.556" fill="#e6e6e6"/>
        <path id="Union_6" data-name="Union 6" d="M.144,4.259A.6.6,0,0,1,.124,3.5l1.1-1.3L.082.873A.581.581,0,0,1,.2.191.59.59,0,0,1,.886.1L1.973,1.334,3.048.074a.592.592,0,0,1,.69.085.582.582,0,0,1,.127.68L2.732,2.2,3.861,3.483a.6.6,0,0,1-.011.757A.612.612,0,0,1,3,4.276L1.986,3.095,1,4.284a.629.629,0,0,1-.42.16A.581.581,0,0,1,.144,4.259Z" transform="translate(1.778 1.333)" fill="#bebebe"/>
      </g>
    </g>
  </g>
</svg>
