<svg id="icone_editar" data-name="icone editar" xmlns="http://www.w3.org/2000/svg" width="24" height="24" viewBox="0 0 24 24">
  <g id="icon_safe_area" data-name="icon+safe area">
    <path id="Icon_awesome-edit" data-name="Icon awesome-edit" d="M11.183,2.312l2.506,2.506a.272.272,0,0,1,0,.383L7.622,11.267l-2.578.286a.54.54,0,0,1-.6-.6l.286-2.578L10.8,2.312A.272.272,0,0,1,11.183,2.312Zm4.5-.636L14.328.32a1.086,1.086,0,0,0-1.533,0l-.983.983a.272.272,0,0,0,0,.383l2.506,2.506a.272.272,0,0,0,.383,0l.983-.983A1.086,1.086,0,0,0,15.683,1.676ZM10.667,9.617v2.828H1.778V3.556H8.161a.342.342,0,0,0,.236-.1L9.508,2.348a.333.333,0,0,0-.236-.569H1.333A1.334,1.334,0,0,0,0,3.112V12.89a1.334,1.334,0,0,0,1.333,1.333h9.778a1.334,1.334,0,0,0,1.333-1.333V8.506a.334.334,0,0,0-.569-.236L10.764,9.381A.342.342,0,0,0,10.667,9.617Z" transform="translate(4 4.997)" fill="#69c"/>
    <rect id="Margem_de_segurança" data-name="Margem de segurança" width="24" height="24" fill="none"/>
  </g>
</svg>
