<svg id="icone_menu_grade_horária" data-name="icone menu_grade horária" xmlns="http://www.w3.org/2000/svg" width="24" height="24" viewBox="0 0 24 24">
  <g id="icone_safearea" data-name="icone+safearea" transform="translate(-104 -14)">
    <rect id="Rectangle_2656" data-name="Rectangle 2656" width="24" height="24" transform="translate(104 14)" fill="none"/>
    <g id="icone_grade_horaria" data-name="icone_grade horaria">
      <rect id="Rectangle_2657" data-name="Rectangle 2657" width="16" height="16" rx="1" transform="translate(108 18)" fill="#e6e6e4"/>
      <g id="detalhes_fundo" data-name="detalhes fundo" transform="translate(109.5 19.579)">
        <g id="Group_4999" data-name="Group 4999" transform="translate(9.253 0.061)">
          <path id="Forma_21_copiar_9" data-name="Forma 21 copiar 9" d="M329.978,242.536a1.866,1.866,0,1,1-1.868,1.926A1.9,1.9,0,0,1,329.978,242.536Z" transform="translate(-328.108 -236.596)" fill="#bebebe" fill-rule="evenodd"/>
          <path id="Forma_21_copiar_7" data-name="Forma 21 copiar 7" d="M330.321,70.614a1.866,1.866,0,1,1-1.868,1.926A1.9,1.9,0,0,1,330.321,70.614Z" transform="translate(-328.44 -70.614)" fill="#bebebe" fill-rule="evenodd"/>
        </g>
        <g id="Group_4998" data-name="Group 4998">
          <path id="Forma_21_copiar_6" data-name="Forma 21 copiar 6" d="M96.353,242.4a1.866,1.866,0,1,1-1.868,1.926A1.9,1.9,0,0,1,96.353,242.4Z" transform="translate(-94.465 -236.403)" fill="#bebebe" fill-rule="evenodd"/>
          <path id="Forma_21_copiar_8" data-name="Forma 21 copiar 8" d="M95.836,68.849a1.866,1.866,0,1,1-1.868,1.926A1.9,1.9,0,0,1,95.836,68.849Z" transform="translate(-93.966 -68.849)" fill="#bebebe" fill-rule="evenodd"/>
        </g>
        <g id="porta" transform="translate(4.517 10.089)">
          <path id="Forma_29" data-name="Forma 29" d="M207.847,365.12l3.583.048.333,0v-4.009a.355.355,0,0,0-.143-.252.367.367,0,0,0-.286-.065h-3.165a.376.376,0,0,0-.322.317Z" transform="translate(-207.847 -360.841)" fill="#bebebe" fill-rule="evenodd"/>
          <path id="Forma_30" data-name="Forma 30" d="M296.6,403.785V405.4a.206.206,0,0,1-.411,0v-1.618a.213.213,0,1,1,.411,0Z" transform="translate(-293.084 -402.042)" fill="#fff" fill-rule="evenodd"/>
        </g>
      </g>
      <g id="Relógio" transform="translate(114 18)">
        <circle id="Ellipse_342" data-name="Ellipse 342" cx="5" cy="5" r="5" fill="#f24e3e"/>
        <g id="borda_horários" data-name="borda horários" transform="translate(0.455 0.429)">
          <g id="Ellipse_341" data-name="Ellipse 341" fill="none" stroke="#fff" stroke-width="0.8">
            <circle cx="4.545" cy="4.545" r="4.545" stroke="none"/>
            <circle cx="4.545" cy="4.545" r="4.145" fill="none"/>
          </g>
          <path id="Forma_28_copiar_3" data-name="Forma 28 copiar 3" d="M176.18,183.641a.7.7,0,0,0,.937.058.444.444,0,0,0,.071-.5.694.694,0,0,0-.937-.057Z" transform="translate(-176.013 -178.847)" fill="#fff" fill-rule="evenodd"/>
          <path id="Forma_28_copiar_4" data-name="Forma 28 copiar 4" d="M418.85,181.7a.7.7,0,0,1-.937.057.444.444,0,0,1-.071-.5.694.694,0,0,1,.937-.058Z" transform="translate(-409.994 -176.969)" fill="#fff" fill-rule="evenodd"/>
          <path id="Forma_28_copiar_5" data-name="Forma 28 copiar 5" d="M302.442,298.136a.659.659,0,0,0,.059-.913.478.478,0,0,0-.515-.069.651.651,0,0,0-.059.913Z" transform="translate(-297.31 -289.379)" fill="#fff" fill-rule="evenodd"/>
          <path id="Forma_28_copiar_6" data-name="Forma 28 copiar 6" d="M301.473,46.992a.659.659,0,0,1,.059.913.478.478,0,0,1-.514.069.65.65,0,0,1-.059-.913Z" transform="translate(-296.717 -46.628)" fill="#fff" fill-rule="evenodd"/>
        </g>
        <path id="Ponteiros" d="M2.307,4.188c-.551-.411-.807-.571-1.28-.915H1a.46.46,0,0,1-.454-.442.443.443,0,0,1,.04-.2C.581,2.067.564,1.753.564,1.073H0L.892,0l.926,1.072H1.267c.014.631.041.935.061,1.433a.47.47,0,0,1,.083.12c.5.388.759.564,1.327,1.007l.349-.443.3,1.363-1.415.069Z" transform="translate(4.091 2.231)" fill="#fff"/>
      </g>
    </g>
  </g>
</svg>
