<svg id="icone_settings" xmlns="http://www.w3.org/2000/svg" width="24" height="24" viewBox="0 0 24 24">
  <g id="icon_safe_area" data-name="icon+ safe area" transform="translate(-39 -77)">
    <rect id="Margem_de_segurança" data-name="Margem de segurança" width="24" height="24" transform="translate(39 77)" fill="none"/>
    <path id="Icon_awesome-cog" data-name="Icon awesome-cog" d="M17.107,10.935l-1.435-.829a6.491,6.491,0,0,0,0-2.366l1.435-.829a.407.407,0,0,0,.185-.472,8.392,8.392,0,0,0-1.843-3.188.405.405,0,0,0-.5-.078L13.514,4A6.359,6.359,0,0,0,11.466,2.82V1.166a.4.4,0,0,0-.317-.394,8.471,8.471,0,0,0-3.68,0,.4.4,0,0,0-.317.394V2.824A6.56,6.56,0,0,0,5.1,4.007L3.672,3.178a.4.4,0,0,0-.5.078A8.342,8.342,0,0,0,1.33,6.443a.4.4,0,0,0,.185.472l1.435.829a6.491,6.491,0,0,0,0,2.366l-1.435.829a.407.407,0,0,0-.185.472A8.392,8.392,0,0,0,3.173,14.6a.405.405,0,0,0,.5.078l1.435-.829a6.359,6.359,0,0,0,2.049,1.183v1.658a.4.4,0,0,0,.317.394,8.471,8.471,0,0,0,3.68,0,.4.4,0,0,0,.317-.394V15.029a6.56,6.56,0,0,0,2.049-1.183l1.435.829a.4.4,0,0,0,.5-.078A8.342,8.342,0,0,0,17.3,11.41a.416.416,0,0,0-.189-.475Zm-7.8.684a2.7,2.7,0,1,1,2.7-2.7A2.7,2.7,0,0,1,9.309,11.619Z" transform="translate(41.689 80.431)" fill="#bebebe"/>
  </g>
</svg>
