<svg id="icone_Canal" xmlns="http://www.w3.org/2000/svg" width="24" height="24" viewBox="0 0 24 24">
  <g id="icone_safearea" data-name="icone +safearea" transform="translate(-1)">
    <rect id="Margem_de_Segurança" data-name="Margem de Segurança" width="24" height="24" transform="translate(1)" fill="rgba(255,255,255,0)"/>
    <g id="icone" transform="translate(4.133 3.304)">
      <g id="braço_bola_inf" data-name="braço +bola_inf" transform="translate(6.867 9.193)">
        <rect id="Rectangle_2751" data-name="Rectangle 2751" width="1" height="4" transform="translate(1.5)" fill="#bebebe"/>
        <circle id="Circulo" cx="2" cy="2" r="2" transform="translate(0 3.502)" fill="#d1d1d1"/>
      </g>
      <g id="braço_bola_dir" data-name="braço +bola_dir" transform="translate(14.039 0.695) rotate(45)">
        <rect id="Rectangle_2751-2" data-name="Rectangle 2751" width="1" height="4" transform="translate(1.5 3.502)" fill="#bebebe"/>
        <circle id="Circulo-2" data-name="Circulo" cx="2" cy="2" r="2" fill="#e4e4e4"/>
      </g>
      <g id="braço_bola_esq" data-name="braço +bola_esq" transform="translate(9 6) rotate(135)">
        <rect id="Rectangle_2751-3" data-name="Rectangle 2751" width="1" height="4" transform="translate(1.5)" fill="#bebebe"/>
        <circle id="Circulo-3" data-name="Circulo" cx="2" cy="2" r="2" transform="translate(0 3.502)" fill="#bebebe"/>
      </g>
      <circle id="Circulo_central" data-name="Circulo central" cx="4" cy="4" r="4" transform="translate(4.867 4.249)" fill="#d1d1d1"/>
      <g id="inclusão" transform="translate(0.867 -0.305)">
        <circle id="Ellipse_354" data-name="Ellipse 354" cx="4" cy="4" r="4" transform="translate(8 9)" fill="#f14e3d"/>
        <path id="_" data-name="+" d="M-1656.283,20798.322v-1.648h-1.65a.675.675,0,0,1-.673-.674.675.675,0,0,1,.673-.674h1.65v-1.648a.676.676,0,0,1,.673-.68.677.677,0,0,1,.679.68v1.648h1.649a.675.675,0,0,1,.673.674.675.675,0,0,1-.673.674h-1.649v1.648a.677.677,0,0,1-.679.68A.676.676,0,0,1-1656.283,20798.322Z" transform="translate(1667.606 -20782.998)" fill="#fff"/>
      </g>
    </g>
  </g>
</svg>
