<svg xmlns="http://www.w3.org/2000/svg" xmlns:xlink="http://www.w3.org/1999/xlink" width="28.335" height="28.969" viewBox="0 0 28.335 28.969">
  <defs>
    <filter id="Path_4182" x="0" y="0" width="21.316" height="22.113" filterUnits="userSpaceOnUse">
      <feOffset input="SourceAlpha"/>
      <feGaussianBlur stdDeviation="3" result="blur"/>
      <feFlood flood-opacity="0.161"/>
      <feComposite operator="in" in2="blur"/>
      <feComposite in="SourceGraphic"/>
    </filter>
    <filter id="Path_4182-2" x="0" y="0" width="21.316" height="22.113" filterUnits="userSpaceOnUse">
      <feOffset input="SourceAlpha"/>
      <feGaussianBlur stdDeviation="1" result="blur-2"/>
      <feFlood flood-opacity="0.161" result="color"/>
      <feComposite operator="out" in="SourceGraphic" in2="blur-2"/>
      <feComposite operator="in" in="color"/>
      <feComposite operator="in" in2="SourceGraphic"/>
    </filter>
    <filter id="Path_4184" x="12.865" y="10.526" width="3.332" height="4.112" filterUnits="userSpaceOnUse">
      <feOffset input="SourceAlpha"/>
      <feGaussianBlur stdDeviation="1" result="blur-3"/>
      <feFlood flood-opacity="0.161" result="color-2"/>
      <feComposite operator="out" in="SourceGraphic" in2="blur-3"/>
      <feComposite operator="in" in="color-2"/>
      <feComposite operator="in" in2="SourceGraphic"/>
    </filter>
  </defs>
  <g id="icone_Grupo_de_funcionalidades" data-name="icone_Grupo de funcionalidades" transform="translate(4.335 4.969)">
    <g id="icone_safearea" data-name="icone+safearea">
      <rect id="Margem_de_Segurança" data-name="Margem de Segurança" width="24" height="24" fill="rgba(255,255,255,0)"/>
      <g id="icone" transform="translate(4 4)">
        <g id="Folha_traz" data-name="Folha traz">
          <path id="Path_4181" data-name="Path 4181" d="M32.465.181a.219.219,0,0,0-.1-.159.243.243,0,0,0-.1-.03c-.224,0-5.881-.007-7.217-.005L21.74,4.129c.036,3.177.073,6.32.122,9.479a.226.226,0,0,0,.115.191.255.255,0,0,0,.1.032h10.2a.208.208,0,0,0,.1-.032.219.219,0,0,0,.1-.159Z" transform="translate(-21.075 0.014)" fill="#bebebe" fill-rule="evenodd"/>
          <g data-type="innerShadowGroup">
            <g transform="matrix(1, 0, 0, 1, -8.33, -8.97)" filter="url(#Path_4182)">
              <path id="Path_4182-3" data-name="Path 4182" d="M25.025,1c.01,1.371.02,2.762.031,4.113H21.74C22.835,3.763,23.944,2.372,25.025,1Z" transform="translate(-12.74 8)" fill="#bebebe" fill-rule="evenodd"/>
            </g>
            <g transform="matrix(1, 0, 0, 1, -8.33, -8.97)" filter="url(#Path_4182-2)">
              <path id="Path_4182-4" data-name="Path 4182" d="M25.025,1c.01,1.371.02,2.762.031,4.113H21.74C22.835,3.763,23.944,2.372,25.025,1Z" transform="translate(-12.74 8)" fill="#fff" fill-rule="evenodd"/>
            </g>
          </g>
        </g>
        <g id="folha_frente" data-name="folha frente">
          <path id="Path_4183" data-name="Path 4183" d="M158.724,50.553a.3.3,0,0,0-.1-.159.238.238,0,0,0-.1-.032c-.224-.019-5.881-.006-7.2,0C150.21,51.739,149.1,53.121,148,54.5q.054,4.74.109,9.479a.344.344,0,0,0,.129.206.955.955,0,0,1,.1.016h10.2a.429.429,0,0,0,.1-.016.286.286,0,0,0,.1-.174Z" transform="translate(-143.47 -48.832)" fill="#e4e4e4" fill-rule="evenodd"/>
          <g data-type="innerShadowGroup">
            <path id="Path_4184-2" data-name="Path 4184" d="M151.3,51.54q-.013,2.056.028,4.112H148C149.094,54.282,150.189,52.911,151.3,51.54Z" transform="translate(-143.47 -49.982)" fill="#e4e4e4" fill-rule="evenodd"/>
            <g transform="matrix(1, 0, 0, 1, -8.33, -8.97)" filter="url(#Path_4184)">
              <path id="Path_4184-3" data-name="Path 4184" d="M151.3,51.54q-.013,2.056.028,4.112H148C149.094,54.282,150.189,52.911,151.3,51.54Z" transform="translate(-135.14 -41.01)" fill="#fff" fill-rule="evenodd"/>
            </g>
          </g>
          <path id="Path_4186" data-name="Path 4186" d="M294.864,158.16a.285.285,0,0,0-.371.259.305.305,0,0,0,.333.3H299.5a.315.315,0,0,0,.378-.261.285.285,0,0,0-.323-.3Z" transform="translate(-285.478 -153.371)" fill="#d1d1d1" fill-rule="evenodd"/>
          <path id="Path_4187" data-name="Path 4187" d="M294.864,196.739a.3.3,0,1,0-.038.578H299.5a.315.315,0,0,0,.378-.261.3.3,0,0,0-.091-.228.313.313,0,0,0-.232-.089Z" transform="translate(-285.478 -190.791)" fill="#d1d1d1" fill-rule="evenodd"/>
          <path id="Path_4188" data-name="Path 4188" d="M294.864,119.6a.3.3,0,1,0-.038.578H299.5a.3.3,0,1,0,.055-.578Z" transform="translate(-285.478 -115.98)" fill="#d1d1d1" fill-rule="evenodd"/>
        </g>
        <path id="pasta" d="M-1708,20745a1,1,0,0,1-1-1v-8a1,1,0,0,1,1-1h4a1,1,0,0,1,1,1v1h9a1,1,0,0,1,1,1v6a1,1,0,0,1-1,1Z" transform="translate(1709 -20729)" fill="#bebebe"/>
        <g id="inclusão" transform="translate(0 -1)">
          <circle id="Ellipse_354" data-name="Ellipse 354" cx="4" cy="4" r="4" transform="translate(8 9)" fill="#f14e3d"/>
          <path id="_" data-name="+" d="M-1656.283,20798.322v-1.648h-1.65a.675.675,0,0,1-.673-.674.675.675,0,0,1,.673-.674h1.65v-1.648a.676.676,0,0,1,.673-.68.677.677,0,0,1,.679.68v1.648h1.649a.675.675,0,0,1,.673.674.675.675,0,0,1-.673.674h-1.649v1.648a.677.677,0,0,1-.679.68A.676.676,0,0,1-1656.283,20798.322Z" transform="translate(1667.606 -20782.998)" fill="#fff"/>
        </g>
      </g>
    </g>
  </g>
</svg>
