<svg id="icone_menu_configurações" data-name="icone menu_configurações" xmlns="http://www.w3.org/2000/svg" width="24" height="24" viewBox="0 0 24 24">
  <g id="iocn_safearea" data-name="iocn+safearea" transform="translate(-4051 -3161)">
    <g id="Icon_Componente_12" data-name="Icon_Componente 12" transform="translate(4055 3165)">
      <path id="engrenagrm_maior" data-name="engrenagrm maior" d="M4.672,28.38l.611-.573-.072-1.325a.635.635,0,0,1,0-.394.7.7,0,0,1,.324-.358,8.139,8.139,0,0,1,1.582-.645.51.51,0,0,1,.324.036.5.5,0,0,1,.18.143L8.627,26.3l.863.036.935-1.075a.65.65,0,0,1,.288-.215.887.887,0,0,1,.683.107c.307.15.839.357,1.294.537a.486.486,0,0,1,.252.287.476.476,0,0,1,0,.287l-.036,1.4.575.609,1.438-.107a.772.772,0,0,1,.359.107.812.812,0,0,1,.252.251,7.173,7.173,0,0,1,.611,1.5.542.542,0,0,1,.036.322.6.6,0,0,1-.216.322c-.193.166-.829.767-1.007.931v.9l1.078.931a.773.773,0,0,1,.18.322.848.848,0,0,1-.036.5c-.162.492-.49,1.112-.575,1.325a.575.575,0,0,1-.216.287.607.607,0,0,1-.4.072c-.294-.028-.943-.049-1.438-.072l-.539.609.072,1.433a.648.648,0,0,1-.072.358.686.686,0,0,1-.252.251,5.955,5.955,0,0,1-1.366.609.8.8,0,0,1-.5.036.761.761,0,0,1-.324-.215c-.141-.151-.621-.638-.935-.967H8.806L7.728,39.126a.819.819,0,0,1-.324.107.877.877,0,0,1-.431-.072c-.376-.15-.924-.39-1.4-.609a.444.444,0,0,1-.216-.537l.036-1.4-.611-.609-1.474.072a.555.555,0,0,1-.324-.072.582.582,0,0,1-.216-.251c-.093-.19-.2-.336-.288-.537-.126-.3-.241-.609-.359-.931a.655.655,0,0,1-.036-.394.716.716,0,0,1,.359-.43l.863-.824v-.86l-1.007-.9a.571.571,0,0,1-.216-.215.62.62,0,0,1,0-.573l.575-1.469a.663.663,0,0,1,.324-.251.649.649,0,0,1,.252-.036Zm1.8,3.26a2.707,2.707,0,0,1,5.356.215,2.771,2.771,0,0,1-2.48,3.009A2.847,2.847,0,0,1,6.47,31.639Z" transform="translate(-2.014 -25.014)" fill="#bebebe" fill-rule="evenodd"/>
      <path id="engrenagem_menor" data-name="engrenagem menor" d="M172.071,167.685l.561-.241.28-.924a.462.462,0,0,1,.1-.269.514.514,0,0,1,.31-.165,5.924,5.924,0,0,1,1.243-.051.371.371,0,0,1,.213.1.363.363,0,0,1,.087.142l.431.958.582.237.907-.5a.475.475,0,0,1,.25-.076.644.644,0,0,1,.441.242c.173.178.485.451.752.686a.352.352,0,0,1,.1.258.347.347,0,0,1-.071.2l-.372.946.242.558,1.011.281a.56.56,0,0,1,.219.162.589.589,0,0,1,.11.233,5.2,5.2,0,0,1,.045,1.179.394.394,0,0,1-.055.229.436.436,0,0,1-.228.167c-.174.066-.758.32-.92.389l-.222.612.507.9a.561.561,0,0,1,.043.265.617.617,0,0,1-.149.334c-.233.3-.611.64-.723.765a.421.421,0,0,1-.219.143.442.442,0,0,1-.288-.048c-.194-.092-.633-.266-.966-.4l-.52.283-.307,1a.472.472,0,0,1-.138.227.5.5,0,0,1-.235.109,4.345,4.345,0,0,1-1.086.08.583.583,0,0,1-.353-.1.551.551,0,0,1-.168-.227c-.059-.138-.267-.589-.4-.892l-.566-.2-1.023.518a.6.6,0,0,1-.248-.006.636.636,0,0,1-.277-.155c-.22-.2-.536-.495-.808-.762a.322.322,0,0,1-.014-.421l.372-.946-.267-.567-1.027-.314a.4.4,0,0,1-.2-.129.421.421,0,0,1-.085-.225c-.017-.153-.055-.279-.063-.438-.013-.234-.014-.476-.015-.725a.476.476,0,0,1,.073-.278.524.524,0,0,1,.353-.205l.8-.351.213-.588-.467-.86a.413.413,0,0,1-.094-.2.451.451,0,0,1,.142-.392l.758-.863a.484.484,0,0,1,.284-.092.474.474,0,0,1,.181.037Zm.421,2.672a1.969,1.969,0,0,1,3.613,1.466,2.023,2.023,0,0,1-2.445,1.447A2.064,2.064,0,0,1,172.492,170.356Z" transform="translate(-163.523 -160.691)" fill="#e6e6e6" fill-rule="evenodd"/>
    </g>
    <rect id="Rectangle_2643" data-name="Rectangle 2643" width="24" height="24" transform="translate(4051 3161)" fill="none"/>
    <g id="inclusão" transform="translate(4055 3164)">
      <path id="Path_4197" data-name="Path 4197" d="M4,0A4,4,0,1,1,0,4,4,4,0,0,1,4,0Z" transform="translate(8 9)" fill="#f14e3d"/>
      <path id="_" data-name="+" d="M-1656.283,20798.322v-1.648h-1.65a.675.675,0,0,1-.673-.674.675.675,0,0,1,.673-.674h1.65v-1.648a.676.676,0,0,1,.673-.68.677.677,0,0,1,.679.68v1.648h1.649a.675.675,0,0,1,.673.674.675.675,0,0,1-.673.674h-1.649v1.648a.677.677,0,0,1-.679.68A.676.676,0,0,1-1656.283,20798.322Z" transform="translate(1667.606 -20782.998)" fill="#fff"/>
    </g>
  </g>
</svg>
