<svg id="Logotipo_CIP" xmlns="http://www.w3.org/2000/svg" width="56" height="36" viewBox="0 0 56 36">
  <g id="Logotipo_area_de_seguança" data-name="Logotipo + area de seguança" transform="translate(10 5)">
    <g id="Logo_CIP" data-name="Logo CIP" transform="translate(2 3)">
      <path id="linha_inferior" data-name="linha inferior" d="M36.152,1522.277l-.006-.367c-8.9,4.906-25.7,2.074-31.983,0,.01.6-.015,2.238-.01,2.531C21.008,1527.866,33.064,1524.527,36.152,1522.277Z" transform="translate(-4.152 -1505.911)" fill="#c10d19"/>
      <g id="Tipo" transform="translate(4 7.001)">
        <path id="Path_1871" data-name="Path 1871" d="M410.361,686.01c-1.2.017-1.87.7-1.9,1.171l-.041,2.911a1.39,1.39,0,0,0,.14.743,2.988,2.988,0,0,0,2.294,1.076h5.73a.033.033,0,0,0,.026-.012,1.119,1.119,0,0,0,0-1.023.031.031,0,0,0-.024-.01c-1.337,0-4.188.009-5.013,0a1.658,1.658,0,0,1-1.3-.431.028.028,0,0,1,0-.015v-2.9a.032.032,0,0,1,0-.015c.405-.761,2.571-.384,6.309-.5a.034.034,0,0,0,.03-.019,1.167,1.167,0,0,0,0-.967.032.032,0,0,0-.029-.017C414.986,686,411.557,685.992,410.361,686.01Z" transform="translate(-408.421 -685.949)"/>
        <path id="Path_1872" data-name="Path 1872" d="M1293.211,681.282a1.016,1.016,0,0,0-.653.2.184.184,0,0,0-.049.14l.011,5.262a.239.239,0,0,0,.055.177,1.519,1.519,0,0,0,1.078.172c.409-.052.548-.19.558-.252.025-1.717,0-5.277,0-5.436C1294.212,681.331,1293.723,681.266,1293.211,681.282Z" transform="translate(-1282.338 -681.279)"/>
        <path id="Subtraction_2" data-name="Subtraction 2" d="M.806,7.91a1.125,1.125,0,0,1-.742-.193.239.239,0,0,1-.053-.174L0,2.2V1.319C.012.963.33.243,1.45.066L1.944,0H8.088A2.887,2.887,0,0,1,9.172.282,1.683,1.683,0,0,1,9.69.672a1.233,1.233,0,0,1,.291.615v3.12a.865.865,0,0,1-.181.5,1.747,1.747,0,0,1-.517.452,3.014,3.014,0,0,1-.813.327A4.377,4.377,0,0,1,7.4,5.814H7.357c-.747-.006-1.538-.01-2.35-.01-1,0-1.832,0-2.275.01H1.685c0,.034,0,.059,0,.09.005.122.017.375,0,1.734-.009.059-.159.2-.563.252A2.44,2.44,0,0,1,.806,7.91ZM4.015,4.844c.563,0,1.094,0,1.577.006l.174,0h0c.131,0,.267,0,.409,0,.883,0,1.906-.067,1.975-.585V1.6c-.1-.584-.92-.613-1.315-.627l-.1,0H2.706c-.757.12-.882.467-.888.664V4.85h.629C2.739,4.847,3.337,4.844,4.015,4.844Z" transform="translate(13.87 0.09)"/>
      </g>
      <path id="Linha_supreior" data-name="Linha supreior" d="M4.207,3.878v.356c8.976-4.622,25.756-2.133,32-.036V1.744C19.427-1.811,7.329,1.744,4.207,3.878Z" transform="translate(-4.207 -0.233)" fill="#c10d19"/>
    </g>
  </g>
</svg>
