<svg id="icone_buscar" xmlns="http://www.w3.org/2000/svg" width="24" height="24" viewBox="0 0 24 24">
  <g id="icone_safe_area" data-name="icone+safe area">
    <path id="Icon_awesome-search" data-name="Icon awesome-search" d="M15.782,13.835,12.667,10.72a.749.749,0,0,0-.531-.219h-.509A6.5,6.5,0,1,0,10.5,11.626v.509a.749.749,0,0,0,.219.531l3.116,3.116a.747.747,0,0,0,1.059,0l.884-.884a.754.754,0,0,0,0-1.063ZM6.5,10.5a4,4,0,1,1,4-4A4,4,0,0,1,6.5,10.5Z" transform="translate(4 4)" fill="#f24e3e"/>
    <rect id="Margem_de_segurança" data-name="Margem de segurança" width="24" height="24" fill="none"/>
  </g>
</svg>
