<svg id="icone_menu_monitoração" data-name="icone menu_monitoração" xmlns="http://www.w3.org/2000/svg" width="24" height="24" viewBox="0 0 24 24">
  <g id="icone_safearea" data-name="icone+safearea" transform="translate(-104 -14)">
    <g id="Icone_monitoração" transform="translate(108 17)">
      <path id="Forma_8" data-name="Forma 8" d="M83.425,25.017a.282.282,0,0,1,.144-.206.392.392,0,0,1,.144-.042c.329-.026,8.771-.008,10.764,0l4.949,5.378L99.26,42.467a.361.361,0,0,1-.192.247.418.418,0,0,1-.144.042H83.713a.346.346,0,0,1-.144-.042.281.281,0,0,1-.144-.206Z" transform="translate(-83.425 -24.756)" fill="#e6e6e6" fill-rule="evenodd"/>
      <g id="Linha_1" data-name="Linha 1" transform="translate(1.128 1.019)" opacity="0.5">
        <g id="_0" data-name="0" transform="translate(0 0.001)">
          <path id="Subtraction_2" data-name="Subtraction 2" d="M1.742,3.937a1.934,1.934,0,0,1-.7-.129A1.921,1.921,0,0,1,0,1.939a2.688,2.688,0,0,1,.175-.9A1.536,1.536,0,0,1,1.089.106,1.8,1.8,0,0,1,2.407.145a1.821,1.821,0,0,1,.908,1.794A1.792,1.792,0,0,1,2.5,3.773a1.712,1.712,0,0,1-.756.164ZM1.731.675a1.136,1.136,0,0,0-.323.046C.739.939.686,1.807.681,1.979a1.292,1.292,0,0,0,.637,1.248,1.243,1.243,0,0,0,.472.092,1.046,1.046,0,0,0,.526-.13,1.485,1.485,0,0,0,.408-1.249A1.491,1.491,0,0,0,2.315.847,1.1,1.1,0,0,0,1.731.684Z" transform="translate(0.005 0)" fill="#bebebe"/>
        </g>
        <g id="_0_copiar_4" data-name="0 copiar 4" transform="translate(7.538 0)">
          <path id="Subtraction_1" data-name="Subtraction 1" d="M1.741,3.937a1.934,1.934,0,0,1-.7-.129,1.547,1.547,0,0,1-.9-.962A2.624,2.624,0,0,1,.175,1.038,1.535,1.535,0,0,1,1.089.106,1.8,1.8,0,0,1,2.406.145a1.821,1.821,0,0,1,.908,1.794A1.793,1.793,0,0,1,2.5,3.773,1.711,1.711,0,0,1,1.741,3.937ZM1.73.675a1.137,1.137,0,0,0-.323.046C.738.939.685,1.807.681,1.978a1.292,1.292,0,0,0,.637,1.249,1.244,1.244,0,0,0,.472.092,1.043,1.043,0,0,0,.526-.132,1.485,1.485,0,0,0,.408-1.249A1.488,1.488,0,0,0,2.314.847,1.1,1.1,0,0,0,1.73.683Z" transform="translate(0 0)" fill="#bebebe"/>
        </g>
        <path id="_1" data-name="1" d="M215.669,50.927h-.549l-.681.975h.681q-.013,1.482-.027,2.963h.572Z" transform="translate(-209.628 -50.925)" fill="#bebebe" fill-rule="evenodd"/>
      </g>
      <path id="Forma_10" data-name="Forma 10" d="M109.52,205.085a1.8,1.8,0,0,1,1.317.039,1.832,1.832,0,0,1,.908,1.8,1.792,1.792,0,0,1-.817,1.834,1.856,1.856,0,0,1-1.452.039,2.143,2.143,0,0,1,.045-3.706Z" transform="translate(-107.296 -197.949)" fill="#bebebe" fill-rule="evenodd" opacity="0.5"/>
      <path id="Forma_10_copiar" data-name="Forma 10 copiar" d="M124.154,222.547a1.128,1.128,0,0,1,.908.113,1.875,1.875,0,0,1,0,2.34,1.181,1.181,0,0,1-1,.039,1.289,1.289,0,0,1-.636-1.249C123.433,223.578,123.5,222.752,124.154,222.547Z" transform="translate(-121.613 -214.788)" fill="#e4e4e4" fill-rule="evenodd"/>
      <path id="Forma_10-2" data-name="Forma 10" d="M275.52,205.053a1.8,1.8,0,0,1,1.317.039,1.832,1.832,0,0,1,.908,1.794,1.792,1.792,0,0,1-.817,1.834,1.856,1.856,0,0,1-1.452.039,2.143,2.143,0,0,1,.045-3.706Z" transform="translate(-265.764 -197.918)" fill="#bebebe" fill-rule="evenodd" opacity="0.5"/>
      <path id="Forma_10_copiar-2" data-name="Forma 10 copiar" d="M290.154,222.516a1.128,1.128,0,0,1,.908.112,1.874,1.874,0,0,1,0,2.34,1.181,1.181,0,0,1-1,.039,1.29,1.29,0,0,1-.636-1.249C289.433,223.547,289.5,222.721,290.154,222.516Z" transform="translate(-280.081 -214.758)" fill="#e4e4e4" fill-rule="evenodd"/>
      <path id="_1_copiar" data-name="1 copiar" d="M215.669,204.974h-.549l-.681.975h.681q-.013,1.482-.027,2.963h.572Z" transform="translate(-208.5 -197.944)" fill="#bebebe" fill-rule="evenodd" opacity="0.5"/>
      <path id="_1_copiar_5" data-name="1 copiar 5" d="M381.669,204.943h-.549l-.681.975h.681q-.013,1.482-.027,2.963h.571Z" transform="translate(-366.968 -197.914)" fill="#bebebe" fill-rule="evenodd" opacity="0.5"/>
      <path id="Forma_10-3" data-name="Forma 10" d="M109.52,361.064a1.8,1.8,0,0,1,1.317.039,1.832,1.832,0,0,1,.908,1.794,1.792,1.792,0,0,1-.817,1.834,1.856,1.856,0,0,1-1.452.039,2.143,2.143,0,0,1,.045-3.706Z" transform="translate(-107.296 -347.845)" fill="#bebebe" fill-rule="evenodd" opacity="0.5"/>
      <path id="Forma_10_copiar-3" data-name="Forma 10 copiar" d="M124.153,378.526a1.128,1.128,0,0,1,.908.113,1.874,1.874,0,0,1,0,2.34,1.181,1.181,0,0,1-1,.039,1.289,1.289,0,0,1-.636-1.249C123.433,379.557,123.5,378.728,124.153,378.526Z" transform="translate(-121.612 -364.683)" fill="#e4e4e4" fill-rule="evenodd"/>
      <path id="Forma_10-4" data-name="Forma 10" d="M275.521,361.033a1.8,1.8,0,0,1,1.317.039,1.832,1.832,0,0,1,.908,1.794,1.791,1.791,0,0,1-.817,1.834,1.856,1.856,0,0,1-1.452.039,2.143,2.143,0,0,1,.045-3.706Z" transform="translate(-265.765 -347.814)" fill="#bebebe" fill-rule="evenodd" opacity="0.5"/>
      <path id="Forma_10_copiar-4" data-name="Forma 10 copiar" d="M290.155,378.5a1.128,1.128,0,0,1,.908.112,1.874,1.874,0,0,1,0,2.34,1.181,1.181,0,0,1-1,.039,1.289,1.289,0,0,1-.636-1.249C289.434,379.526,289.5,378.7,290.155,378.5Z" transform="translate(-280.082 -364.653)" fill="#e4e4e4" fill-rule="evenodd"/>
      <path id="_1_copiar-2" data-name="1 copiar" d="M215.669,360.953h-.549l-.681.975h.681q-.013,1.482-.027,2.963h.572Z" transform="translate(-208.5 -347.84)" fill="#bebebe" fill-rule="evenodd" opacity="0.5"/>
      <path id="_1_copiar_5-2" data-name="1 copiar 5" d="M381.669,360.922h-.549l-.681.975h.681q-.013,1.482-.027,2.963h.571Z" transform="translate(-366.968 -347.81)" fill="#bebebe" fill-rule="evenodd" opacity="0.5"/>
      <path id="Forma_9" data-name="Forma 9" d="M327.045,26q-.023,2.672-.045,5.343h4.945Z" transform="translate(-315.949 -25.952)" fill="#bebebe" fill-rule="evenodd"/>
      <path id="linha_" data-name="linha " d="M8.53,9.319l-1.089-6.9L5.762,8.344a.678.678,0,0,1-1.088,0L3.356,5.532,2.9,8.3H1.46a.846.846,0,0,1-1.227.053A.881.881,0,0,1,0,7.666a.809.809,0,0,1,.347-.614.83.83,0,0,1,.94,0,.69.69,0,0,1,.211.2h.4l.726-3.511a.485.485,0,0,1,.908,0l1.5,2.886L6.985.272a.68.68,0,0,1,1.088,0l1.633,8.5,1.362-4.1a.626.626,0,0,1,.548-.194.583.583,0,0,1,.364.194l1,2.613H13.4a.724.724,0,0,1,.228-.241.83.83,0,0,1,.94,0,.784.784,0,0,1,.349.568.886.886,0,0,1-.173.675.845.845,0,0,1-1.233.059A.636.636,0,0,1,13.46,8.3l-1.254-.034-.59-1.833L10.755,9.28a1.166,1.166,0,0,1-1.1.7l-.067,0A1.186,1.186,0,0,1,8.53,9.319Z" transform="translate(0.467 4.456)" fill="#f24e3e"/>
    </g>
    <rect id="Rectangle_2656" data-name="Rectangle 2656" width="24" height="24" transform="translate(104 14)" fill="none"/>
  </g>
</svg>
