<svg id="icone_menu_participantes" data-name="icone menu_participantes" xmlns="http://www.w3.org/2000/svg" xmlns:xlink="http://www.w3.org/1999/xlink" width="24" height="24" viewBox="0 0 24 24">
  <defs>
    <filter id="Forma_1" x="2" y="5.17" width="14.932" height="16.33" filterUnits="userSpaceOnUse">
      <feOffset dx="0.5" input="SourceAlpha"/>
      <feGaussianBlur stdDeviation="0.5" result="blur"/>
      <feFlood flood-opacity="0.161"/>
      <feComposite operator="in" in2="blur"/>
      <feComposite in="SourceGraphic"/>
    </filter>
  </defs>
  <g id="icon_safe_area" data-name="icon+safe area" transform="translate(-66 -14)">
    <rect id="Rectangle_2655" data-name="Rectangle 2655" width="24" height="24" transform="translate(66 14)" fill="none"/>
    <g id="camisteas" transform="translate(-1887.596 -596)">
      <g id="camiseta_2" data-name="camiseta 2" transform="translate(1963.772 614)">
        <path id="Forma_1-2" data-name="Forma 1" d="M214.654,54.424a.46.46,0,0,1,.18-.315.424.424,0,0,1,.205-.079h8a.453.453,0,0,1,.385.394l1.026,11.435a.317.317,0,0,1-.333.262H213.987a.322.322,0,0,1-.257-.079.332.332,0,0,1-.1-.184Z" transform="translate(-213.628 -54.031)" fill="#e4e4e4" fill-rule="evenodd"/>
        <path id="Forma_6_copiar" data-name="Forma 6 copiar" d="M327.013,197.231l-.923,5.98,1.513,1.1,1.616-1.075-1.026-6.006Z" transform="translate(-322.242 -192.222)" fill="#a09c9c" fill-rule="evenodd"/>
        <path id="Forma_15" data-name="Forma 15" d="M342.584,215.246l2.565,3.908-.333-2.1-1.975-3.331Z" transform="translate(-338.172 -208.139)" fill="#fff" fill-rule="evenodd"/>
        <path id="Forma_5" data-name="Forma 5" d="M319.467,112.988l-2,2.649-1.872-2.649a2.137,2.137,0,0,1,3.873,0Z" transform="translate(-312.106 -109.735)" fill="#a09c9c" fill-rule="evenodd"/>
        <path id="Forma_2" data-name="Forma 2" d="M251.118,54.06a5.667,5.667,0,0,0,8.259,0c-1.382-.017-2.748-.026-4.13-.026S252.5,54.043,251.118,54.06Z" transform="translate(-249.835 -54.034)" fill="#9e9e9e" fill-rule="evenodd"/>
        <path id="Forma_3_copiar_3" data-name="Forma 3 copiar 3" d="M235.913,55.534a6.188,6.188,0,0,0,2.129,1.364,6.07,6.07,0,0,0,2.026.393,4.878,4.878,0,0,0-1.847,3.724l-2.847-1.783.282-3.383a.425.425,0,0,1,.128-.236A.4.4,0,0,1,235.913,55.534Z" transform="translate(-234.63 -55.481)" fill="#bebebe" fill-rule="evenodd"/>
        <path id="Forma_3_copiar_4" data-name="Forma 3 copiar 4" d="M378.15,54.784a6.435,6.435,0,0,1-2.129,1.364,6.31,6.31,0,0,1-1.949.42,4.615,4.615,0,0,1,1.77,3.7l2.847-1.783-.282-3.383a.425.425,0,0,0-.128-.236A.4.4,0,0,0,378.15,54.784Z" transform="translate(-368.583 -54.758)" fill="#bebebe" fill-rule="evenodd"/>
      </g>
      <g id="camiseta_1" data-name="camiseta 1" transform="translate(1956.596 616.669)">
        <g transform="matrix(1, 0, 0, 1, -3, -6.67)" filter="url(#Forma_1)">
          <path id="Forma_1-3" data-name="Forma 1" d="M5.01,130.758a.507.507,0,0,1,.2-.347.468.468,0,0,1,.226-.087h8.822a.5.5,0,0,1,.424.434l1.131,12.605a.349.349,0,0,1-.368.289H4.275a.355.355,0,0,1-.283-.087.366.366,0,0,1-.113-.2Z" transform="translate(-0.88 -123.66)" fill="#e4e4e4" fill-rule="evenodd"/>
        </g>
        <path id="Forma_6_copiar-2" data-name="Forma 6 copiar" d="M128.87,288.183l-1.018,6.592,1.668,1.214L131.3,294.8l-1.131-6.621Z" transform="translate(-123.611 -282.661)" fill="#f14e3d" fill-rule="evenodd"/>
        <path id="Forma_15-2" data-name="Forma 15" d="M146.035,308.043l2.828,4.308-.368-2.313-2.177-3.672Z" transform="translate(-141.172 -300.208)" fill="#fff" fill-rule="evenodd"/>
        <path id="Forma_5-2" data-name="Forma 5" d="M120.551,195.312l-2.205,2.92-2.064-2.92a2.356,2.356,0,0,1,4.27,0Z" transform="translate(-112.436 -191.727)" fill="#f14e3d" fill-rule="evenodd"/>
        <path id="Forma_2-2" data-name="Forma 2" d="M45.2,130.353a6.247,6.247,0,0,0,9.1,0c-1.523-.019-3.029-.029-4.552-.029S46.723,130.334,45.2,130.353Z" transform="translate(-43.786 -130.324)" fill="#9e9e9e" fill-rule="evenodd"/>
        <path id="Forma_3_copiar_3-2" data-name="Forma 3 copiar 3" d="M28.439,131.977a6.821,6.821,0,0,0,2.347,1.5,6.692,6.692,0,0,0,2.234.434,5.378,5.378,0,0,0-2.036,4.105l-3.139-1.966.311-3.729a.468.468,0,0,1,.141-.26.437.437,0,0,1,.141-.087Z" transform="translate(-27.025 -131.919)" fill="#bebebe" fill-rule="evenodd"/>
        <path id="Forma_3_copiar_4-2" data-name="Forma 3 copiar 4" d="M185.241,131.151a7.093,7.093,0,0,1-2.347,1.5,6.958,6.958,0,0,1-2.149.463,5.087,5.087,0,0,1,1.951,4.076l3.139-1.966-.311-3.73a.468.468,0,0,0-.141-.26A.438.438,0,0,0,185.241,131.151Z" transform="translate(-174.694 -131.122)" fill="#bebebe" fill-rule="evenodd"/>
      </g>
    </g>
  </g>
</svg>
