<svg id="icone_guia_de_arrecadação" data-name="icone_guia de arrecadação" xmlns="http://www.w3.org/2000/svg" width="24" height="24" viewBox="0 0 24 24">
  <g id="icon_safearea" data-name="icon+safearea" transform="translate(-1691 20461)">
    <g id="icone" transform="translate(1695 -20457)">
      <path id="Capa" d="M42.9.647A1.967,1.967,0,0,0,41.65,0H31.632A1.948,1.948,0,0,0,30.25.733a1.9,1.9,0,0,0-.389,1.035V13.973a1.9,1.9,0,0,0,.3,1.164A1.977,1.977,0,0,0,31.718,16H41.65a1.99,1.99,0,0,0,1.727-1.9V1.725A1.952,1.952,0,0,0,42.9.647Zm-9.63,13.393A1.423,1.423,0,1,1,34.7,12.615,1.459,1.459,0,0,1,33.273,14.039Zm0-4.609A1.423,1.423,0,1,1,34.7,8.007,1.459,1.459,0,0,1,33.273,9.43Zm0-4.643A1.459,1.459,0,0,1,31.8,3.278a1.449,1.449,0,0,1,2.893.086,1.449,1.449,0,0,1-1.425,1.423Z" transform="translate(-28.959)" fill="#e5e5e5"/>
      <g id="aspiral" transform="translate(0 2.977)">
        <g id="Forma_520" data-name="Forma 520">
          <path id="Path_3953" data-name="Path 3953" d="M4.163,97.17H.23a.479.479,0,0,0,0,.941l3.933-.043a.454.454,0,0,0,0-.9Z" transform="translate(0.16 -97.17)" fill="#bfbfbf"/>
        </g>
        <g id="Forma_520_copiar" data-name="Forma 520 copiar" transform="translate(0.001 4.553)">
          <path id="Path_3954" data-name="Path 3954" d="M4.188,249.36H.255a.479.479,0,0,0,0,.94l3.933-.042a.454.454,0,0,0,0-.9Z" transform="translate(0.134 -249.36)" fill="#bfbfbf"/>
        </g>
        <g id="Forma_520_copiar_3" data-name="Forma 520 copiar 3" transform="translate(0 9.147)">
          <path id="Path_3955" data-name="Path 3955" d="M4.163,402.93H.23a.479.479,0,0,0,0,.941l3.933-.043a.454.454,0,0,0,0-.9Z" transform="translate(0.16 -402.93)" fill="#bfbfbf"/>
        </g>
      </g>
      <path id="aba_escura" data-name="aba escura" d="M478.819,165.57a1.668,1.668,0,0,0-1.539-1.24v6.028a1.771,1.771,0,0,0,.9-.342,1.8,1.8,0,0,0,.684-1.112Q478.84,167.237,478.819,165.57Z" transform="translate(-462.861 -159.344)" fill="#bfbfbf"/>
      <path id="aba_calra" data-name="aba calra" d="M478.819,65.54a1.668,1.668,0,0,0-1.539-1.24v6.028a1.77,1.77,0,0,0,.9-.342,1.8,1.8,0,0,0,.684-1.111Q478.84,67.207,478.819,65.54Z" transform="translate(-462.861 -62.377)" fill="#d2d2d2"/>
      <path id="_" data-name="$" d="M-1666.548,20423.949l-.016-.928a2.408,2.408,0,0,1-.574-.164,1.741,1.741,0,0,1-.769-.584,1.426,1.426,0,0,1-.282-.852l.728-.016a.948.948,0,0,0,.385.785,1.34,1.34,0,0,0,.5.223l-.034-2a2.937,2.937,0,0,1-1.006-.523,1.286,1.286,0,0,1-.446-.963,1.343,1.343,0,0,1,.5-1.082,1.859,1.859,0,0,1,.9-.408l-.012-.693a.4.4,0,0,1,.395-.41.4.4,0,0,1,.405.395l.012.684a2.075,2.075,0,0,1,.66.188,1.657,1.657,0,0,1,.7.59,1.572,1.572,0,0,1,.256.84l-.728.016a1,1,0,0,0-.333-.783,1.11,1.11,0,0,0-.547-.246l.033,1.926a4.241,4.241,0,0,1,.847.344,1.6,1.6,0,0,1,.584.533,1.383,1.383,0,0,1,.2.723,1.289,1.289,0,0,1-.5,1.082,2.02,2.02,0,0,1-1.076.408l.015.9a.4.4,0,0,1-.39.406h-.01A.4.4,0,0,1-1666.548,20423.949Zm.774-1.514a1.182,1.182,0,0,0,.564-.225.762.762,0,0,0,.3-.645.746.746,0,0,0-.3-.621,2.29,2.29,0,0,0-.594-.283Zm-1.261-4.191a.809.809,0,0,0-.292.666.719.719,0,0,0,.3.564,1.849,1.849,0,0,0,.409.223l-.028-1.645A1.046,1.046,0,0,0-1667.035,20418.244Z" transform="translate(1676.186 -20412.338)" fill="#f14e3d"/>
    </g>
    <g id="Margem_de_Segurança" data-name="Margem de Segurança" transform="translate(1691 -20461)" fill="#fff" stroke="#707070" stroke-width="1" opacity="0">
      <rect width="24" height="24" stroke="none"/>
      <rect x="0.5" y="0.5" width="23" height="23" fill="none"/>
    </g>
  </g>
</svg>
