<svg id="icon_Qtd._negociações_por_dia" data-name="icon_Qtd. negociações por dia" xmlns="http://www.w3.org/2000/svg" width="24" height="24" viewBox="0 0 24 24">
  <g id="icon_safearea" data-name="icon+ safearea" transform="translate(-1389 20366)">
    <rect id="Margem_de_Segurança" data-name="Margem de Segurança" width="24" height="24" transform="translate(1389 -20366)" fill="none"/>
    <g id="icone" transform="translate(1393 -20362)">
      <g id="calendário">
        <g id="Forma_16" data-name="Forma 16" transform="translate(0 3.05)">
          <path id="Path_3939" data-name="Path 3939" d="M15.961,94.664a.678.678,0,0,0-.154-.563.556.556,0,0,0-.51-.188H.667a.552.552,0,0,0-.483.132.657.657,0,0,0-.211.523v10.612a.757.757,0,0,0,.211.522.644.644,0,0,0,.513.2H15.358a.551.551,0,0,0,.423-.163.658.658,0,0,0,.181-.523Z" transform="translate(0.028 -95.161)" fill="#e5e5e5"/>
        </g>
        <path id="Path_3940" data-name="Path 3940" d="M379.772-.017a1.7,1.7,0,0,0-1.591,1.963c.349.795,2.719.81,3.084,0A1.677,1.677,0,0,0,379.772-.017Z" transform="translate(-366.809 0.018)" fill="#bfbfbf"/>
        <path id="Path_3941" data-name="Path 3941" d="M56.472-.017a1.7,1.7,0,0,0-1.591,1.963c.35.795,2.719.81,3.084,0A1.677,1.677,0,0,0,56.472-.017Z" transform="translate(-53.046 0.018)" fill="#bfbfbf"/>
        <g id="linha_1" data-name="linha 1" transform="translate(1.504 5.671)">
          <g id="Forma_21_copiar_6" data-name="Forma 21 copiar 6" transform="translate(0 -0.172)">
            <path id="Path_3942" data-name="Path 3942" d="M48.008,177.89a1.654,1.654,0,1,0,1.725,1.705A1.711,1.711,0,0,0,48.008,177.89Z" transform="translate(-46.286 -177.89)" fill="#bfbfbf"/>
          </g>
          <g id="Forma_21_copiar_7" data-name="Forma 21 copiar 7" transform="translate(4.777 -0.172)">
            <path id="Path_3943" data-name="Path 3943" d="M213.8,177.89a1.654,1.654,0,1,0,1.725,1.705A1.712,1.712,0,0,0,213.8,177.89Z" transform="translate(-212.076 -177.89)" fill="#bfbfbf"/>
          </g>
          <g id="Forma_21_copiar_8" data-name="Forma 21 copiar 8" transform="translate(9.562)">
            <path id="Path_3944" data-name="Path 3944" d="M379.868,177.89a1.654,1.654,0,1,0,1.725,1.705A1.712,1.712,0,0,0,379.868,177.89Z" transform="translate(-378.146 -178.062)" fill="#bfbfbf"/>
          </g>
        </g>
        <g id="linha_2" data-name="linha 2" transform="translate(1.504 9.348)">
          <path id="Path_3945" data-name="Path 3945" d="M379.872,309.82a1.654,1.654,0,1,0,1.722,1.705A1.713,1.713,0,0,0,379.872,309.82Z" transform="translate(-368.584 -309.668)" fill="#bfbfbf"/>
          <path id="Path_3946" data-name="Path 3946" d="M214.082,309.82a1.654,1.654,0,1,0,1.722,1.705A1.713,1.713,0,0,0,214.082,309.82Z" transform="translate(-207.571 -309.668)" fill="#bfbfbf"/>
          <path id="Path_3947" data-name="Path 3947" d="M48,309.82a1.654,1.654,0,1,0,1.722,1.705A1.713,1.713,0,0,0,48,309.82Z" transform="translate(-46.277 -309.668)" fill="#bfbfbf"/>
        </g>
        <path id="Path_3948" data-name="Path 3948" d="M15.777,54.273a.567.567,0,0,0-.453-.13H.694a.553.553,0,0,0-.255.007.564.564,0,0,0-.228.123A.685.685,0,0,0,0,54.787v2.35H15.989V54.884A.673.673,0,0,0,15.777,54.273ZM3.23,55.978c-1.052.088-1.686-1.4-1.63-1.448s.7.982,1.6.933c.824-.044,1.331-.98,1.388-.933S4.187,55.9,3.23,55.978Zm9.817,0c-1.05.087-1.685-1.4-1.63-1.448s.7.982,1.6.933c.824-.044,1.331-.98,1.388-.933s-.4,1.369-1.359,1.448Z" transform="translate(0.001 -52.373)" fill="#bfbfbf"/>
      </g>
      <g id="icone_consulta_negocição" data-name="icone_consulta negocição" transform="translate(1777.203 14506.984)">
        <g id="mão_direita" data-name="mão direita" transform="translate(-1770.59 -14499.756)">
          <path id="Path_4204" data-name="Path 4204" d="M-1767.469-14494.591c-.573.421-2.782,1.929-2.988,2.489s.481.987.687,1.056.55-.226.55-.226.481.942,1.176.98c.381.05.771-.442.771-.442a1.266,1.266,0,0,0,1.237.442c.824-.143,1.839-1.391,2.107-1.63a.93.93,0,0,1,.5-.252s.023-2.164,0-3.687a2.464,2.464,0,0,0-1.305-1.511,3.964,3.964,0,0,0-1.809-.112s1.872,1.178,1.969,2.107a1.56,1.56,0,0,1-1.571,1.563A1.754,1.754,0,0,1-1767.469-14494.591Z" transform="translate(1770.495 14497.541)" fill="#f24e3e"/>
          <path id="Rectangle_2829" data-name="Rectangle 2829" d="M0,0H1.346a.5.5,0,0,1,.5.5V3.25a.5.5,0,0,1-.5.5H0a0,0,0,0,1,0,0V0A0,0,0,0,1,0,0Z" transform="translate(7.541 1.647)" fill="#f24e3e"/>
        </g>
        <g id="mão_esquerda" data-name="mão esquerda" transform="translate(-1773.203 -14499.984)">
          <path id="Path_4203" data-name="Path 4203" d="M-1770.7-14492.638v-3.543a2.5,2.5,0,0,1,.825-1.12,2.462,2.462,0,0,1,2.542-.092c.573.361,3,2.085,2.153,2.779-.65.488-1.164.063-1.8-.508s-.719-.968-1.135-.732c-.367.313.132.655.4.908C-1767.917-14494.8-1770.7-14492.638-1770.7-14492.638Z" transform="translate(1773.011 14497.7)" fill="#f24e3e"/>
          <path id="Rectangle_2830" data-name="Rectangle 2830" d="M.5,0H1.846a0,0,0,0,1,0,0V3.75a0,0,0,0,1,0,0H.5a.5.5,0,0,1-.5-.5V.5A.5.5,0,0,1,.5,0Z" transform="translate(0 1.875)" fill="#f24e3e"/>
        </g>
      </g>
    </g>
  </g>
</svg>
