<svg id="iconw_sem_permissao" xmlns="http://www.w3.org/2000/svg" width="24" height="24" viewBox="0 0 24 24">
  <rect id="Rectangle_2840" data-name="Rectangle 2840" width="24" height="24" fill="none"/>
  <g id="icon_safearea" data-name="icon+safearea" transform="translate(-1923.5 -563)">
    <path id="circulo" d="M40.455,23.774a10.194,10.194,0,0,0-11.12,9.306A10.194,10.194,0,0,0,39.912,43.7a10.228,10.228,0,0,0,9.366-10.965A10.1,10.1,0,0,0,40.455,23.774Z" transform="translate(1896.183 541.281)" fill="#e6e6e6" stroke="#bebebe" stroke-width="1.5" fill-rule="evenodd"/>
    <path id="hand-paper-solid" d="M1.167,3.808A1.209,1.209,0,0,1,2.38,5.021V7.616h.238V2.374A1.209,1.209,0,0,1,3.831,1.16,1.19,1.19,0,0,1,5,2.35V7.616h.238v-6.4A1.209,1.209,0,0,1,6.449,0,1.19,1.19,0,0,1,7.616,1.19V7.616h.238V2.4A1.209,1.209,0,0,1,9.067,1.19a1.19,1.19,0,0,1,1.167,1.19V9.4l.942-1.295a1.19,1.19,0,1,1,1.925,1.4L9.364,14.644a1.428,1.428,0,0,1-1.155.588H2.33a1.428,1.428,0,0,1-1.39-1.1L.152,10.779A5.712,5.712,0,0,1,0,9.471V5A1.19,1.19,0,0,1,1.167,3.808Z" transform="translate(1930.039 567.363)" fill="#f24e3e"/>
    <path id="Diagonal" d="M1941.844,567.766v18.6" transform="matrix(0.819, 0.574, -0.574, 0.819, 675.696, -1011.519)" fill="none" stroke="#bebebe" stroke-linecap="round" stroke-width="2"/>
  </g>
</svg>
