<svg id="icone_Timeout" xmlns="http://www.w3.org/2000/svg" width="24" height="24" viewBox="0 0 24 24">
  <g id="iocn_safearea" data-name="iocn+safearea">
    <rect id="Rectangle_2494" data-name="Rectangle 2494" width="24" height="24" fill="none"/>
    <g id="relógio_fundo" data-name="relógio+fundo" transform="translate(2 2)">
      <path id="elipse" d="M40.455,23.774a10.194,10.194,0,0,0-11.12,9.306A10.194,10.194,0,0,0,39.912,43.7a10.228,10.228,0,0,0,9.366-10.965A10.1,10.1,0,0,0,40.455,23.774Z" transform="translate(-29.317 -23.718)" fill="#e6e6e6" stroke="#bebebe" stroke-width="2" fill-rule="evenodd"/>
      <g id="relógio" transform="translate(-0.318 -0.338)">
        <g id="pernas" transform="translate(-0.093 -1.215)">
          <rect id="Rectangle_2847" data-name="Rectangle 2847" width="1.5" height="4" rx="0.75" transform="translate(11.318 14.088) rotate(-30)" fill="#f24e3e"/>
          <rect id="Rectangle_2848" data-name="Rectangle 2848" width="1.5" height="4" rx="0.75" transform="translate(7.617 17.553) rotate(-150)" fill="#f24e3e"/>
        </g>
        <path id="fundo_relógio" data-name="fundo relógio" d="M146.61,149.26a4,4,0,1,1,.9,4.791A4.017,4.017,0,0,1,146.61,149.26Z" transform="translate(-139.811 -140.446)" fill="#fff" stroke="#f24e3e" stroke-width="1" fill-rule="evenodd"/>
        <path id="alarme_dir" d="M297.822,125.134a2.7,2.7,0,0,1,3.837-.321,2.38,2.38,0,0,1-.123,3.468A5.04,5.04,0,0,0,297.822,125.134Z" transform="translate(-286.032 -119.822)" fill="#f24e3e" fill-rule="evenodd"/>
        <path id="alarme_esq" d="M135.713,125.134a2.7,2.7,0,0,0-3.838-.321,2.38,2.38,0,0,0,.123,3.468A5.04,5.04,0,0,1,135.713,125.134Z" transform="translate(-126.866 -119.822)" fill="#f24e3e" fill-rule="evenodd"/>
        <path id="ponteiros" d="M252.463,228.145l.033-1.964a.471.471,0,0,1,.8,0l.033,1.742.8.792a.382.382,0,0,1,0,.38.453.453,0,0,1-.534.158Z" transform="translate(-242.707 -217.288)" fill="#f24e3e" fill-rule="evenodd"/>
      </g>
    </g>
  </g>
</svg>
