<svg id="icone_Volume_financeiro" data-name="icone_Volume financeiro" xmlns="http://www.w3.org/2000/svg" width="24" height="24" viewBox="0 0 24 24">
  <g id="icon_safearea" data-name="icon+safearea">
    <rect id="Rectangle_2838" data-name="Rectangle 2838" width="24" height="24" fill="none"/>
    <g id="iocnn_safearea" data-name="iocnn+safearea" transform="translate(-1599 -526)">
      <path id="Forma_511" data-name="Forma 511" d="M16.056,122.514l1.872,1.794.756,7.112a2.238,2.238,0,0,0,2.365,1.886h5.125a2.2,2.2,0,0,0,2.168-1.948l.69-7.607h.985v5.319a1.02,1.02,0,0,0,1.117.866.989.989,0,0,0,.854-.866v-6.061a1.278,1.278,0,0,0-.263-.618,1.469,1.469,0,0,0-.953-.526H23.119l-4.829-.928-1.938.9a.514.514,0,0,0-.361.4A.434.434,0,0,0,16.056,122.514Zm4.632,1.546v7.081a.5.5,0,0,0,.558.4h1.905a.452.452,0,0,0,.394-.42.447.447,0,0,0-.361-.446l-1.544-.031v-.866H22.2a.438.438,0,0,0,0-.866l-.558-.031v-.835l1.478-.031a.433.433,0,0,0,0-.866H21.641v-.9h.624a.458.458,0,0,0,.362-.421.453.453,0,0,0-.33-.445h-.657v-.9h1.445a.434.434,0,1,0,0-.866H21.214a.465.465,0,0,0-.263.031A.46.46,0,0,0,20.688,124.06Z" transform="translate(1587.012 412.692)" fill="#bebebe" fill-rule="evenodd"/>
      <g id="_" data-name="$" transform="translate(1611 529.999)">
        <path id="Forma_21_copiar_14" data-name="Forma 21 copiar 14" d="M188.84.943a4.081,4.081,0,0,0-4.18,3.584,4,4,0,1,0,7.959-.04A4.052,4.052,0,0,0,188.84.943Z" transform="translate(-184.641 -0.939)" fill="#f14e3d" fill-rule="evenodd"/>
        <path id="Forma_47" data-name="Forma 47" d="M262.356,62.643c-.182-.142-.147-.338-.28-.489a1.079,1.079,0,0,0-.894-.217,1.119,1.119,0,0,0-.452.164.675.675,0,0,0-.286.32.513.513,0,0,0,.207.472.789.789,0,0,0,.439.152c.205.026.345.092.547.133a2.714,2.714,0,0,1,.6.168,1.255,1.255,0,0,1,.422.276.982.982,0,0,1,.282.665,1.316,1.316,0,0,1-.228.6,1.463,1.463,0,0,1-.61.536,1.561,1.561,0,0,1-.38.111,1.838,1.838,0,0,1-1.074-.109,1.3,1.3,0,0,1-.813-.939c-.012-.189.038-.287.1-.336a.357.357,0,0,1,.438.059c.063.072.046.14.075.233.05.158.208.3.533.415a1.208,1.208,0,0,0,.89-.047.705.705,0,0,0,.413-.375.453.453,0,0,0-.078-.351.611.611,0,0,0-.331-.224,11.623,11.623,0,0,1-1.332-.352,1.275,1.275,0,0,1-.625-.5.957.957,0,0,1-.135-.508,1.234,1.234,0,0,1,.21-.566,1.366,1.366,0,0,1,.412-.41,1.856,1.856,0,0,1,.579-.2,2.178,2.178,0,0,1,.855.006,1.629,1.629,0,0,1,.66.378,1.664,1.664,0,0,1,.315.418.528.528,0,0,1,.077.3.363.363,0,0,1-.159.3A.4.4,0,0,1,262.356,62.643Z" transform="translate(-257.366 -59.403)" fill="#fff" fill-rule="evenodd"/>
        <path id="Forma_48" data-name="Forma 48" d="M297.437,42.34q.044,2.409.087,4.818a.321.321,0,0,0,.637.062l-.088-4.888a.32.32,0,0,0-.636.009Z" transform="translate(-293.798 -40.771)" fill="#fff" fill-rule="evenodd"/>
      </g>
    </g>
  </g>
</svg>
