<svg id="icone_reprovar" xmlns="http://www.w3.org/2000/svg" width="24" height="24" viewBox="0 0 24 24">
  <g id="iocn_safe_area" data-name="iocn+safe area" transform="translate(-366 -7)">
    <path id="Icon_awesome-times" data-name="Icon awesome-times" d="M9.654,12.625l3.98-3.98a1.251,1.251,0,0,0,0-1.769l-.885-.885a1.251,1.251,0,0,0-1.769,0L7,9.971,3.02,5.991a1.251,1.251,0,0,0-1.769,0l-.885.885a1.251,1.251,0,0,0,0,1.769l3.98,3.98-3.98,3.98a1.251,1.251,0,0,0,0,1.769l.885.885a1.251,1.251,0,0,0,1.769,0L7,15.279l3.98,3.98a1.251,1.251,0,0,0,1.769,0l.885-.885a1.251,1.251,0,0,0,0-1.769Z" transform="translate(371 6.375)" fill="#f24e3e"/>
    <rect id="Rectangle_2629" data-name="Rectangle 2629" width="24" height="24" transform="translate(366 7)" fill="none"/>
  </g>
</svg>
